<svg version="1.1" id="Layer_1" xmlns="http://www.w3.org/2000/svg" xmlns:xlink="http://www.w3.org/1999/xlink" x="0px" y="0px"
	 width="100%" viewBox="0 0 310 310" enable-background="new 0 0 310 310" xml:space="preserve">
<path fill="#8D7EA2" opacity="1.000000" stroke="none" 
	d="
M1.000000,14.000000 
	C1.000000,9.678257 1.000000,5.356514 1.000000,1.000000 
	C51.020889,1.000000 101.041786,1.000000 151.603241,1.360842 
	C157.138916,3.813795 162.075623,6.067102 167.160797,7.910843 
	C168.947937,8.558807 171.507431,7.520435 173.013809,8.422168 
	C179.591324,12.359501 186.393738,10.722153 193.326660,10.349682 
	C197.491318,10.125936 201.932526,11.226367 205.869202,12.728335 
	C207.185242,13.230445 207.323013,16.820793 207.562561,18.999672 
	C203.417358,18.333384 199.708984,17.666895 195.709137,16.758671 
	C194.131119,16.553177 192.840652,16.672400 191.558670,16.611879 
	C184.454330,16.276508 176.719345,17.580782 170.375656,15.196484 
	C155.371887,9.557263 139.777435,11.018105 124.488411,9.356800 
	C116.366104,8.474232 108.011459,9.683265 99.765083,10.029147 
	C98.141815,10.097234 95.866760,9.954840 95.036789,10.907068 
	C91.751862,14.675882 87.556519,13.976417 83.453827,13.992404 
	C76.454308,14.019681 69.453545,14.064297 62.455807,13.949080 
	C60.876068,13.923071 58.558125,13.803262 57.857048,12.817963 
	C54.035381,7.446960 48.722790,9.040917 43.700302,9.331310 
	C38.525837,9.630490 33.368988,10.367396 28.194317,10.491722 
	C23.222025,10.611183 18.200121,9.771223 13.273999,10.200945 
	C11.088881,10.391560 9.085815,12.669153 6.571640,13.999476 
	C4.428780,13.999693 2.714390,13.999846 1.000000,14.000000 
z"/>
<path fill="#9A8BAE" opacity="1.000000" stroke="none" 
	d="
M1.000000,58.000000 
	C1.000000,53.643101 1.000000,49.286201 1.428010,44.464699 
	C4.224714,43.510334 6.573492,42.832836 8.967204,42.578884 
	C11.882400,42.269611 14.840621,42.156040 17.770704,42.251198 
	C21.265881,42.364704 24.799719,43.299606 28.230204,42.971947 
	C35.240326,42.302380 42.200970,40.112263 49.166935,40.176693 
	C67.757751,40.348640 86.341080,41.370430 104.924866,42.117195 
	C105.657455,42.146629 106.364189,42.819561 107.027084,43.523621 
	C103.665611,47.911835 100.360008,51.969078 96.632736,56.018730 
	C94.531860,56.008339 92.852654,56.005543 91.092133,55.648949 
	C90.128288,55.063152 89.072334,54.405785 88.396729,54.681255 
	C86.582253,55.421097 84.930389,56.559795 82.922791,57.207722 
	C81.038399,56.583775 79.413620,55.929893 77.857605,56.065453 
	C72.126976,56.564686 66.409409,57.948002 60.704739,57.858841 
	C48.666622,57.670685 36.640045,56.757504 24.607786,56.160885 
	C23.456661,56.103806 22.292698,56.109226 21.145195,56.207840 
	C14.428397,56.785061 7.714726,57.398666 1.000000,58.000000 
z"/>
<path fill="#EAC89F" opacity="1.000000" stroke="none" 
	d="
M132.000000,311.000000 
	C114.312439,311.000000 96.624878,311.000000 78.378906,310.668152 
	C74.213669,308.224243 70.606842,306.112122 67.328697,303.810608 
	C70.827583,303.263672 73.991615,302.830109 77.169899,302.572357 
	C79.761406,302.362213 82.428207,302.673096 84.957802,302.199005 
	C89.132309,301.416626 93.203773,299.407318 97.353035,299.304688 
	C106.719116,299.073029 116.114624,300.013580 125.479706,299.769531 
	C128.351624,299.694672 131.163620,297.321014 134.449371,295.999878 
	C139.169357,296.183228 143.496567,296.878235 147.704941,296.437897 
	C155.193924,295.654327 162.580826,293.904053 170.068420,293.095123 
	C175.333313,292.526367 180.698792,292.684601 186.010803,292.830231 
	C189.349121,292.921722 192.671616,293.590332 195.902618,294.332916 
	C194.202469,295.443878 192.600922,296.221954 190.586670,297.020203 
	C185.596939,297.693542 181.033676,298.711273 176.438568,298.884521 
	C172.760773,299.023193 170.356598,300.213257 169.272614,303.697998 
	C168.260910,306.950348 166.048813,307.810577 162.817673,307.788513 
	C153.916870,307.727783 145.009064,307.816681 136.117538,308.178558 
	C134.709076,308.235931 133.370758,310.016266 132.000000,311.000000 
z"/>
<path fill="#8C7C9F" opacity="1.000000" stroke="none" 
	d="
M207.999390,18.999468 
	C207.323013,16.820793 207.185242,13.230445 205.869202,12.728335 
	C201.932526,11.226367 197.491318,10.125936 193.326660,10.349682 
	C186.393738,10.722153 179.591324,12.359501 173.013809,8.422168 
	C171.507431,7.520435 168.947937,8.558807 167.160797,7.910843 
	C162.075623,6.067102 157.138916,3.813795 152.071899,1.360842 
	C164.020889,1.000000 176.041794,1.000000 188.665863,1.371993 
	C189.483322,1.991773 189.729279,2.476992 189.907349,2.453249 
	C198.340805,1.328736 206.524826,6.441060 215.130966,3.339627 
	C216.859512,2.716705 219.510605,3.484705 221.300293,4.433723 
	C225.576981,6.701518 227.714935,12.092975 233.509888,12.445244 
	C235.860336,12.588126 238.181274,14.980969 240.422241,14.842137 
	C248.355026,14.350688 254.296539,21.999790 262.559845,19.934422 
	C263.384674,19.728256 264.578125,21.554405 265.756897,22.098448 
	C268.848022,23.525076 271.927826,25.158100 275.195648,25.970304 
	C278.644653,26.827528 280.655334,28.176952 279.692505,32.244450 
	C277.295380,32.503963 275.109711,32.923584 273.130798,32.460220 
	C266.049438,30.802101 259.038116,28.844725 251.793549,26.688213 
	C247.390991,25.917364 243.195190,25.458839 238.701965,24.758167 
	C234.936356,23.677168 231.468185,22.838316 227.983154,21.622112 
	C227.155060,17.367376 224.904770,17.314789 221.596039,19.019131 
	C218.446869,19.621031 215.718185,20.527451 212.951553,20.663858 
	C211.332123,20.743704 209.652130,19.595324 207.999390,18.999468 
z"/>
<path fill="#E9C9AF" opacity="1.000000" stroke="none" 
	d="
M1.000002,275.000000 
	C1.000000,272.299377 1.000000,269.598724 1.408985,266.445312 
	C4.890700,265.333405 7.945170,264.218384 11.039332,264.094452 
	C24.147676,263.569458 37.267151,263.305634 50.384502,263.043701 
	C51.989552,263.011658 53.986763,263.064148 55.146408,263.942902 
	C58.640907,266.590973 61.815327,265.260559 65.479645,264.424255 
	C69.895226,263.416473 74.797180,262.659119 79.121956,263.557800 
	C86.307068,265.050842 93.439865,267.421509 100.126663,270.454437 
	C104.203941,272.303741 107.404854,276.085175 110.649155,279.060272 
	C105.306290,280.620331 100.434784,283.105499 94.973267,280.624939 
	C93.397652,279.676636 91.090073,278.148804 90.419556,278.681519 
	C85.181160,282.843384 80.609779,279.829468 76.209702,277.505463 
	C73.894753,276.282745 72.463005,275.666931 70.873787,278.153351 
	C69.419907,280.428009 66.956207,280.492828 66.144363,278.318665 
	C64.129776,272.923462 61.091766,274.661865 58.838501,276.109283 
	C56.041214,274.480774 54.052029,272.783447 51.764416,272.128387 
	C48.949532,271.322449 45.891083,271.195526 42.928505,271.113190 
	C37.001751,270.948425 31.298363,270.791290 25.552113,273.854370 
	C21.534956,275.995758 16.357859,277.269653 11.550353,273.448090 
	C10.161376,272.343964 6.945098,273.392517 4.598468,273.698761 
	C3.363409,273.859955 2.197266,274.549194 1.000002,275.000000 
z"/>
<path fill="#9385A9" opacity="1.000000" stroke="none" 
	d="
M1.000000,36.000000 
	C1.000000,34.933212 1.000000,33.866425 1.343182,32.338585 
	C8.453366,24.600039 17.267054,23.812664 26.201553,25.037214 
	C30.595480,25.639439 34.535606,27.774197 38.034046,23.162258 
	C38.730484,22.244156 40.800518,22.058105 42.234692,22.064762 
	C47.594994,22.089643 53.355453,20.695883 57.422562,26.010624 
	C57.914173,26.653038 59.225849,26.776014 60.190941,26.930487 
	C66.620743,27.959627 73.009598,28.682566 79.306747,25.995438 
	C82.181702,24.768631 85.224754,23.330969 88.252960,23.174109 
	C100.529648,22.538177 112.834610,22.066912 125.118385,22.251356 
	C127.767258,22.291128 130.371429,25.306717 132.695221,27.119625 
	C128.974411,29.208942 125.554596,31.130196 121.742935,32.883957 
	C120.219696,32.481201 119.094650,32.080379 117.955887,32.036636 
	C107.998184,31.654161 98.019836,31.594460 88.085777,30.896017 
	C82.560127,30.507523 77.644745,30.735678 73.217979,34.657536 
	C72.001373,35.735374 69.456520,35.778629 67.596741,35.581940 
	C61.045959,34.889126 54.537979,33.802307 47.995052,33.021770 
	C40.321548,32.106354 32.519440,35.323986 24.829941,32.189880 
	C23.406359,31.609655 21.310497,32.701229 19.520432,32.993752 
	C13.348026,34.002396 7.173635,34.998882 1.000000,36.000000 
z"/>
<path fill="#E6C6B2" opacity="1.000000" stroke="none" 
	d="
M110.999390,278.998779 
	C107.404854,276.085175 104.203941,272.303741 100.126663,270.454437 
	C93.439865,267.421509 86.307068,265.050842 79.121956,263.557800 
	C74.797180,262.659119 69.895226,263.416473 65.479645,264.424255 
	C61.815327,265.260559 58.640907,266.590973 55.146408,263.942902 
	C53.986763,263.064148 51.989552,263.011658 50.384502,263.043701 
	C37.267151,263.305634 24.147676,263.569458 11.039332,264.094452 
	C7.945170,264.218384 4.890700,265.333405 1.408985,265.996246 
	C1.000000,263.629425 1.000000,261.258881 1.411555,258.371460 
	C11.896519,257.648346 21.969761,257.433472 32.043388,257.238525 
	C39.604633,257.092194 47.172073,257.092041 54.722961,256.734924 
	C56.189167,256.665588 57.731773,255.426544 58.998695,254.423386 
	C63.834595,250.594345 69.503304,254.142014 74.581230,252.570679 
	C74.828987,252.494003 75.371407,253.119980 75.671425,253.501480 
	C77.955139,256.405640 80.652451,256.376038 83.949844,254.769287 
	C93.413361,257.359344 102.596039,259.133331 112.247025,257.430237 
	C112.888992,257.504333 113.378441,257.444946 114.260422,257.260895 
	C117.082085,256.682190 119.511208,256.228149 121.946777,256.157074 
	C121.636681,258.005859 121.320145,259.471649 120.641129,261.085480 
	C114.907967,262.388885 109.537285,263.544250 102.405243,265.078552 
	C108.612404,269.268433 113.796684,272.767883 118.889328,276.619141 
	C116.198242,277.646912 113.598816,278.322845 110.999390,278.998779 
z"/>
<path fill="#ECCBA4" opacity="1.000000" stroke="none" 
	d="
M134.003052,296.000000 
	C131.163620,297.321014 128.351624,299.694672 125.479706,299.769531 
	C116.114624,300.013580 106.719116,299.073029 97.353035,299.304688 
	C93.203773,299.407318 89.132309,301.416626 84.957802,302.199005 
	C82.428207,302.673096 79.761406,302.362213 77.169899,302.572357 
	C73.991615,302.830109 70.827583,303.263672 66.878387,303.810577 
	C63.458218,304.150604 60.807449,304.207886 58.178589,304.478241 
	C55.579689,304.745514 52.945915,305.778534 50.426647,305.517609 
	C41.165512,304.558594 31.973867,302.845734 22.701056,302.108826 
	C15.509901,301.537354 8.236718,301.998108 1.000000,302.000000 
	C1.000000,298.638702 1.000000,295.277435 1.468651,291.458069 
	C9.071034,290.988953 16.204765,290.970734 23.338499,290.969330 
	C28.745382,290.968262 34.201584,290.559235 39.539310,291.172302 
	C42.406361,291.501587 44.990242,294.481750 47.840187,294.740082 
	C56.556240,295.530121 65.343636,295.498932 74.093941,295.963287 
	C77.247131,296.130646 80.362793,296.926636 83.516060,297.195953 
	C86.023933,297.410187 88.606049,297.555420 91.077133,297.195374 
	C94.093460,296.755920 97.028168,295.756195 100.419388,295.003662 
	C109.632004,295.671600 118.418571,296.416809 127.218582,296.932617 
	C129.121140,297.044128 131.072083,296.330170 133.251312,295.997253 
	C133.668945,295.998749 133.835999,295.999359 134.003052,296.000000 
z"/>
<path fill="#8B7A9B" opacity="1.000000" stroke="none" 
	d="
M279.998810,31.999502 
	C280.655334,28.176952 278.644653,26.827528 275.195648,25.970304 
	C271.927826,25.158100 268.848022,23.525076 265.756897,22.098448 
	C264.578125,21.554405 263.384674,19.728256 262.559845,19.934422 
	C254.296539,21.999790 248.355026,14.350688 240.422241,14.842137 
	C238.181274,14.980969 235.860336,12.588126 233.509888,12.445244 
	C227.714935,12.092975 225.576981,6.701518 221.300293,4.433723 
	C219.510605,3.484705 216.859512,2.716705 215.130966,3.339627 
	C206.524826,6.441060 198.340805,1.328736 189.907349,2.453249 
	C189.729279,2.476992 189.483322,1.991773 189.134521,1.371993 
	C203.687561,1.000000 218.375122,1.000000 233.618393,1.338024 
	C238.665115,3.798154 243.013550,6.337109 247.683990,7.934644 
	C253.259369,9.841704 259.261658,10.522873 264.797699,12.516324 
	C269.866333,14.341482 274.363464,18.483170 279.472290,19.271101 
	C285.069611,20.134380 289.658569,22.454834 294.609985,24.576269 
	C299.880402,26.834400 305.521027,28.228596 311.000000,30.000000 
	C311.000000,34.024544 311.000000,38.049088 310.642883,42.480209 
	C300.520691,38.338047 290.661224,34.051937 279.998810,31.999502 
z"/>
<path fill="#9183A7" opacity="1.000000" stroke="none" 
	d="
M132.996201,26.951563 
	C130.371429,25.306717 127.767258,22.291128 125.118385,22.251356 
	C112.834610,22.066912 100.529648,22.538177 88.252960,23.174109 
	C85.224754,23.330969 82.181702,24.768631 79.306747,25.995438 
	C73.009598,28.682566 66.620743,27.959627 60.190941,26.930487 
	C59.225849,26.776014 57.914173,26.653038 57.422562,26.010624 
	C53.355453,20.695883 47.594994,22.089643 42.234692,22.064762 
	C40.800518,22.058105 38.730484,22.244156 38.034046,23.162258 
	C34.535606,27.774197 30.595480,25.639439 26.201553,25.037214 
	C17.267054,23.812664 8.453366,24.600039 1.343182,31.938766 
	C1.000000,29.958334 1.000000,27.916666 1.409243,25.436981 
	C7.545650,22.999210 13.272813,20.999460 19.453556,18.999790 
	C25.872549,18.666576 31.849497,17.931252 37.800453,18.101961 
	C45.204643,18.314360 52.581123,19.696344 59.980942,19.806032 
	C69.273163,19.943771 78.577034,19.307756 87.875534,18.995443 
	C89.203957,18.950825 90.813271,19.311592 91.813232,18.700438 
	C100.046379,13.668530 109.307922,15.965639 118.029259,15.256280 
	C127.534981,14.483120 137.247772,15.227983 146.773636,16.229959 
	C150.647018,16.637381 154.265610,19.466932 157.559723,21.189880 
	C148.545593,20.878902 140.684311,23.552982 132.996201,26.951563 
z"/>
<path fill="#9788AB" opacity="1.000000" stroke="none" 
	d="
M1.000000,36.444164 
	C7.173635,34.998882 13.348026,34.002396 19.520432,32.993752 
	C21.310497,32.701229 23.406359,31.609655 24.829941,32.189880 
	C32.519440,35.323986 40.321548,32.106354 47.995052,33.021770 
	C54.537979,33.802307 61.045959,34.889126 67.596741,35.581940 
	C69.456520,35.778629 72.001373,35.735374 73.217979,34.657536 
	C77.644745,30.735678 82.560127,30.507523 88.085777,30.896017 
	C98.019836,31.594460 107.998184,31.654161 117.955887,32.036636 
	C119.094650,32.080379 120.219696,32.481201 121.554680,33.172142 
	C116.866501,36.816105 111.974739,40.004383 107.082970,43.192657 
	C106.364189,42.819561 105.657455,42.146629 104.924866,42.117195 
	C86.341080,41.370430 67.757751,40.348640 49.166935,40.176693 
	C42.200970,40.112263 35.240326,42.302380 28.230204,42.971947 
	C24.799719,43.299606 21.265881,42.364704 17.770704,42.251198 
	C14.840621,42.156040 11.882400,42.269611 8.967204,42.578884 
	C6.573492,42.832836 4.224714,43.510334 1.428010,44.000050 
	C1.000000,41.629444 1.000000,39.258884 1.000000,36.444164 
z"/>
<path fill="#B49CB2" opacity="1.000000" stroke="none" 
	d="
M311.000000,148.000000 
	C311.000000,156.020905 311.000000,164.041809 310.646667,172.475952 
	C308.044098,171.540344 304.757568,170.731750 303.724976,168.749222 
	C299.242340,160.142807 289.425262,158.509888 283.188568,152.250015 
	C280.529480,149.581055 276.725342,148.052917 273.342773,145.555573 
	C273.176392,141.444794 273.108704,137.784790 273.084900,133.663666 
	C273.239899,130.472870 273.351013,127.743233 273.841248,125.039886 
	C278.957581,125.955856 284.052917,125.946861 287.035034,130.887070 
	C287.537994,131.720261 289.002625,132.323837 290.072174,132.408020 
	C297.887360,133.023163 301.817566,138.767059 306.157043,144.127151 
	C307.427551,145.696442 309.367096,146.724091 311.000000,148.000000 
z"/>
<path fill="#EACBAB" opacity="1.000000" stroke="none" 
	d="
M1.000002,275.428467 
	C2.197266,274.549194 3.363409,273.859955 4.598468,273.698761 
	C6.945098,273.392517 10.161376,272.343964 11.550353,273.448090 
	C16.357859,277.269653 21.534956,275.995758 25.552113,273.854370 
	C31.298363,270.791290 37.001751,270.948425 42.928505,271.113190 
	C45.891083,271.195526 48.949532,271.322449 51.764416,272.128387 
	C54.052029,272.783447 56.041214,274.480774 58.838501,276.109283 
	C61.091766,274.661865 64.129776,272.923462 66.144363,278.318665 
	C66.956207,280.492828 69.419907,280.428009 70.873787,278.153351 
	C72.463005,275.666931 73.894753,276.282745 76.209702,277.505463 
	C80.609779,279.829468 85.181160,282.843384 90.419556,278.681519 
	C91.090073,278.148804 93.397652,279.676636 94.745071,280.888763 
	C94.695541,283.685089 94.847794,285.842560 94.666611,288.000000 
	C93.888618,288.000000 93.444054,288.000000 92.775955,287.752441 
	C90.557381,286.049500 88.620483,285.246033 86.584961,287.995758 
	C82.748367,287.972260 79.308243,288.173920 75.912056,287.875488 
	C72.023415,287.533813 68.169197,286.776031 64.309441,286.141785 
	C62.701607,285.877594 61.090637,285.078857 59.528461,285.189850 
	C53.851120,285.593170 48.195072,286.291504 42.527225,286.839600 
	C41.885082,286.901703 41.083576,286.930145 40.585426,286.613373 
	C36.339954,283.913666 31.739407,284.626923 27.123505,284.952179 
	C24.998240,285.101898 22.367346,285.488403 20.775356,284.484131 
	C14.565032,280.566498 7.791770,280.965363 1.000000,281.000000 
	C1.000000,279.285645 1.000000,277.571289 1.000002,275.428467 
M47.096107,275.211456 
	C46.845146,276.151855 46.594181,277.092224 46.343216,278.032623 
	C48.061192,278.032623 49.779171,278.032623 51.497147,278.032623 
	C51.521774,277.353638 51.546406,276.674652 51.571033,275.995697 
	C50.312752,275.690125 49.054474,275.384583 47.096107,275.211456 
z"/>
<path fill="#AE96AF" opacity="1.000000" stroke="none" 
	d="
M311.000000,147.531342 
	C309.367096,146.724091 307.427551,145.696442 306.157043,144.127151 
	C301.817566,138.767059 297.887360,133.023163 290.072174,132.408020 
	C289.002625,132.323837 287.537994,131.720261 287.035034,130.887070 
	C284.052917,125.946861 278.957581,125.955856 273.740448,124.627037 
	C273.194397,122.494194 273.128235,120.800491 273.118225,118.632660 
	C273.135406,113.441261 273.096436,108.723991 273.420227,104.170204 
	C274.580170,104.543037 275.381439,104.948463 276.173859,104.931786 
	C285.390533,104.737785 292.902222,109.664642 300.019592,114.233841 
	C303.638000,116.556770 306.215973,119.820038 311.000000,119.000000 
	C311.000000,128.354233 311.000000,137.708450 311.000000,147.531342 
z"/>
<path fill="#BBA4B3" opacity="1.000000" stroke="none" 
	d="
M311.000000,186.000000 
	C311.000000,190.689255 311.000000,195.378510 310.571259,200.533875 
	C297.934052,201.003845 285.725616,201.007721 273.471558,200.546844 
	C272.829620,194.328720 272.743378,188.462189 271.498779,182.852661 
	C270.155365,176.797806 267.728668,170.983307 266.163239,165.038864 
	C267.792236,164.627319 269.032532,164.240860 270.465088,164.058716 
	C271.060211,164.890717 271.463074,165.518417 271.954376,166.421204 
	C272.690552,166.129852 273.338257,165.563400 274.326202,165.053284 
	C275.960907,166.460541 278.621826,168.497879 278.340790,169.057327 
	C275.150909,175.407303 280.341919,176.371490 283.939362,177.294983 
	C288.767395,178.534363 292.084869,181.203369 295.105286,184.890594 
	C296.038818,186.030243 298.131439,186.724609 299.701172,186.738403 
	C303.464996,186.771561 307.233429,186.279877 311.000000,186.000000 
z"/>
<path fill="#877797" opacity="1.000000" stroke="none" 
	d="
M311.000000,29.536818 
	C305.521027,28.228596 299.880402,26.834400 294.609985,24.576269 
	C289.658569,22.454834 285.069611,20.134380 279.472290,19.271101 
	C274.363464,18.483170 269.866333,14.341482 264.797699,12.516324 
	C259.261658,10.522873 253.259369,9.841704 247.683990,7.934644 
	C243.013550,6.337109 238.665115,3.798154 234.087051,1.338024 
	C246.687561,1.000000 259.375122,1.000000 272.596619,1.352408 
	C275.764038,3.116916 278.262177,4.940618 281.057739,5.859838 
	C287.974121,8.134058 295.050323,9.918182 302.005890,12.080761 
	C303.518311,12.550995 304.756134,13.850452 306.189880,14.642262 
	C307.751099,15.504483 309.393188,16.220331 311.000000,17.000000 
	C311.000000,21.024544 311.000000,25.049089 311.000000,29.536818 
z"/>
<path fill="#9783A2" opacity="1.000000" stroke="none" 
	d="
M311.000000,59.000000 
	C311.000000,64.022095 311.000000,69.044182 310.643372,74.476646 
	C306.191162,72.924072 302.095581,70.961121 297.936890,68.644524 
	C297.183411,67.392761 296.683258,66.126953 295.772125,65.655586 
	C289.358734,62.337685 282.998932,58.855282 276.356110,56.056564 
	C267.271942,52.229290 257.975311,48.897743 248.709229,45.519749 
	C247.242523,44.985054 245.337952,44.907280 243.843277,45.338066 
	C239.918640,46.469200 238.367386,45.615692 239.547684,41.362568 
	C239.737534,40.678497 239.200836,39.792797 239.273743,38.768967 
	C248.714920,40.274696 258.477295,39.021004 267.467682,43.999107 
	C271.747772,43.999737 275.614380,43.608315 279.355286,44.125683 
	C282.303436,44.533413 285.963898,45.256744 287.800354,47.237617 
	C293.929688,53.848866 302.744904,54.833984 310.016266,58.932896 
	C310.274689,59.078564 310.669006,58.983086 311.000000,59.000000 
z"/>
<path fill="#E4C6B5" opacity="1.000000" stroke="none" 
	d="
M83.606026,254.673416 
	C80.652451,256.376038 77.955139,256.405640 75.671425,253.501480 
	C75.371407,253.119980 74.828987,252.494003 74.581230,252.570679 
	C69.503304,254.142014 63.834595,250.594345 58.998695,254.423386 
	C57.731773,255.426544 56.189167,256.665588 54.722961,256.734924 
	C47.172073,257.092041 39.604633,257.092194 32.043388,257.238525 
	C21.969761,257.433472 11.896519,257.648346 1.411555,257.927307 
	C1.000000,255.629440 1.000000,253.258881 1.393553,250.426178 
	C5.802662,249.243347 9.792441,248.285263 13.838546,247.845932 
	C26.618841,246.458221 39.436810,245.404007 52.200153,243.884384 
	C54.913719,243.561310 57.457977,241.816208 60.421936,240.813751 
	C62.799892,242.013306 64.836159,243.125381 67.072014,244.504425 
	C72.716408,248.072067 78.161217,251.372742 83.606026,254.673416 
z"/>
<path fill="#B8A1B3" opacity="1.000000" stroke="none" 
	d="
M311.000000,185.536819 
	C307.233429,186.279877 303.464996,186.771561 299.701172,186.738403 
	C298.131439,186.724609 296.038818,186.030243 295.105286,184.890594 
	C292.084869,181.203369 288.767395,178.534363 283.939362,177.294983 
	C280.341919,176.371490 275.150909,175.407303 278.340790,169.057327 
	C278.621826,168.497879 275.960907,166.460541 274.319580,164.597534 
	C273.718201,160.389816 273.463623,156.694183 273.192383,152.560944 
	C273.264282,150.084351 273.352905,148.045349 273.441528,146.006363 
	C276.725342,148.052917 280.529480,149.581055 283.188568,152.250015 
	C289.425262,158.509888 299.242340,160.142807 303.724976,168.749222 
	C304.757568,170.731750 308.044098,171.540344 310.646667,172.944595 
	C311.000000,177.024551 311.000000,181.049088 311.000000,185.536819 
z"/>
<path fill="#EBCBA7" opacity="1.000000" stroke="none" 
	d="
M92.999481,288.000000 
	C93.444054,288.000000 93.888618,288.000000 94.755432,288.330566 
	C96.784500,290.773712 98.391335,292.886230 99.998169,294.998779 
	C97.028168,295.756195 94.093460,296.755920 91.077133,297.195374 
	C88.606049,297.555420 86.023933,297.410187 83.516060,297.195953 
	C80.362793,296.926636 77.247131,296.130646 74.093941,295.963287 
	C65.343636,295.498932 56.556240,295.530121 47.840187,294.740082 
	C44.990242,294.481750 42.406361,291.501587 39.539310,291.172302 
	C34.201584,290.559235 28.745382,290.968262 23.338499,290.969330 
	C16.204765,290.970734 9.071034,290.988953 1.468651,291.000000 
	C1.000000,287.969391 1.000000,284.938812 1.000000,281.454102 
	C7.791770,280.965363 14.565032,280.566498 20.775356,284.484131 
	C22.367346,285.488403 24.998240,285.101898 27.123505,284.952179 
	C31.739407,284.626923 36.339954,283.913666 40.585426,286.613373 
	C41.083576,286.930145 41.885082,286.901703 42.527225,286.839600 
	C48.195072,286.291504 53.851120,285.593170 59.528461,285.189850 
	C61.090637,285.078857 62.701607,285.877594 64.309441,286.141785 
	C68.169197,286.776031 72.023415,287.533813 75.912056,287.875488 
	C79.308243,288.173920 82.748367,287.972260 86.942345,288.052399 
	C89.476898,288.075531 91.238190,288.037750 92.999481,288.000000 
M63.664196,292.736847 
	C64.034973,293.048889 64.393784,293.379181 64.796257,293.642853 
	C64.833786,293.667480 65.147560,293.270447 65.333076,293.069183 
	C64.895515,292.838226 64.457947,292.607269 63.664196,292.736847 
z"/>
<path fill="#927F9F" opacity="1.000000" stroke="none" 
	d="
M311.000000,58.533138 
	C310.669006,58.983086 310.274689,59.078564 310.016266,58.932896 
	C302.744904,54.833984 293.929688,53.848866 287.800354,47.237617 
	C285.963898,45.256744 282.303436,44.533413 279.355286,44.125683 
	C275.614380,43.608315 271.747772,43.999737 267.406677,43.646530 
	C265.514435,39.649624 263.298615,37.273754 258.927368,37.638214 
	C257.561523,36.448570 256.371033,35.259438 254.955399,34.851494 
	C247.120621,32.593731 247.101837,32.658894 252.000290,27.000534 
	C259.038116,28.844725 266.049438,30.802101 273.130798,32.460220 
	C275.109711,32.923584 277.295380,32.503963 279.692505,32.244450 
	C290.661224,34.051937 300.520691,38.338047 310.642883,42.943394 
	C311.000000,48.022091 311.000000,53.044186 311.000000,58.533138 
z"/>
<path fill="#A790AB" opacity="1.000000" stroke="none" 
	d="
M311.000000,118.531601 
	C306.215973,119.820038 303.638000,116.556770 300.019592,114.233841 
	C292.902222,109.664642 285.390533,104.737785 276.173859,104.931786 
	C275.381439,104.948463 274.580170,104.543037 273.305359,103.802925 
	C270.455658,97.206512 268.083649,91.140862 266.158478,85.057755 
	C269.344482,85.497818 272.237701,85.542076 274.792358,86.494438 
	C281.120300,88.853470 287.290863,91.633827 293.532715,94.225578 
	C294.137543,94.476700 294.957001,94.931427 295.408508,94.719620 
	C299.816498,92.651779 302.911957,95.760925 306.414734,97.334442 
	C307.894043,97.998970 309.468689,98.451248 311.000000,99.000000 
	C311.000000,105.354401 311.000000,111.708794 311.000000,118.531601 
z"/>
<path fill="#9F90B2" opacity="1.000000" stroke="none" 
	d="
M1.000000,58.444164 
	C7.714726,57.398666 14.428397,56.785061 21.145195,56.207840 
	C22.292698,56.109226 23.456661,56.103806 24.607786,56.160885 
	C36.640045,56.757504 48.666622,57.670685 60.704739,57.858841 
	C66.409409,57.948002 72.126976,56.564686 77.857605,56.065453 
	C79.413620,55.929893 81.038399,56.583775 82.688492,57.435997 
	C77.409615,61.128815 72.073883,64.260963 66.376450,67.230324 
	C59.185738,67.045021 52.355118,66.928268 45.528435,67.043976 
	C42.583519,67.093895 39.652691,67.710587 36.704723,67.914551 
	C33.304729,68.149796 29.870829,68.527573 26.490507,68.290176 
	C17.982021,67.692650 9.495391,66.783958 1.000000,66.000000 
	C1.000000,63.629444 1.000000,61.258884 1.000000,58.444164 
z"/>
<path fill="#DFC3B8" opacity="1.000000" stroke="none" 
	d="
M60.080231,240.726273 
	C57.457977,241.816208 54.913719,243.561310 52.200153,243.884384 
	C39.436810,245.404007 26.618841,246.458221 13.838546,247.845932 
	C9.792441,248.285263 5.802662,249.243347 1.393553,249.982010 
	C1.000000,245.975449 1.000000,241.950912 1.360666,237.398743 
	C5.165757,233.999557 8.881816,233.623367 13.262382,234.666107 
	C16.206287,235.366867 19.519011,234.954819 22.602194,234.549637 
	C30.875895,233.462250 39.114906,232.110901 47.645664,231.022629 
	C51.975834,234.362671 56.028030,237.544464 60.080231,240.726273 
z"/>
<path fill="#A092B2" opacity="1.000000" stroke="none" 
	d="
M1.000000,66.463181 
	C9.495391,66.783958 17.982021,67.692650 26.490507,68.290176 
	C29.870829,68.527573 33.304729,68.149796 36.704723,67.914551 
	C39.652691,67.710587 42.583519,67.093895 45.528435,67.043976 
	C52.355118,66.928268 59.185738,67.045021 66.119263,67.492439 
	C60.160038,71.972069 54.096317,76.026794 47.774311,79.797050 
	C43.891350,79.314644 40.268719,79.042122 36.641338,78.942619 
	C33.795166,78.864540 30.941755,79.067924 28.094297,79.010498 
	C26.823467,78.984863 25.556070,78.429390 24.292730,78.450493 
	C16.527594,78.580254 8.764064,78.806122 1.000000,79.000000 
	C1.000000,74.975456 1.000000,70.950912 1.000000,66.463181 
z"/>
<path fill="#ADA0BB" opacity="1.000000" stroke="none" 
	d="
M1.000000,125.000000 
	C1.000000,119.645073 1.000000,114.290138 1.446100,108.467606 
	C13.343970,106.989655 24.756973,104.552444 36.371559,107.519623 
	C36.466721,111.924667 36.494785,115.875122 36.393738,120.179901 
	C36.156303,121.025299 36.047981,121.516373 35.543137,122.009201 
	C33.090759,122.569489 31.066195,123.356331 28.973101,123.643227 
	C23.004173,124.461372 17.021482,125.290749 11.015928,125.685806 
	C7.706643,125.903496 4.340506,125.256927 1.000000,125.000000 
z"/>
<path fill="#EBC59A" opacity="1.000000" stroke="none" 
	d="
M132.468658,311.000000 
	C133.370758,310.016266 134.709076,308.235931 136.117538,308.178558 
	C145.009064,307.816681 153.916870,307.727783 162.817673,307.788513 
	C166.048813,307.810577 168.260910,306.950348 169.272614,303.697998 
	C170.356598,300.213257 172.760773,299.023193 176.438568,298.884521 
	C181.033676,298.711273 185.596939,297.693542 190.885773,297.264954 
	C197.775864,297.905640 203.996338,298.931335 210.116379,298.507294 
	C213.737595,298.256409 216.518188,298.387573 218.811279,301.318665 
	C216.439758,302.425537 214.280304,303.287567 212.069519,303.987427 
	C206.738647,305.674988 200.157898,304.646057 197.000000,311.000000 
	C175.645767,311.000000 154.291550,311.000000 132.468658,311.000000 
z"/>
<path fill="#D9B3AC" opacity="1.000000" stroke="none" 
	d="
M311.000000,235.000000 
	C311.000000,241.354401 311.000000,247.708786 310.609314,254.515106 
	C303.969238,252.779510 297.662689,251.150116 290.979645,252.645081 
	C290.398193,249.533890 288.916565,249.600449 286.625244,251.000000 
	C285.500153,250.999802 284.750061,250.999603 283.916077,250.664124 
	C282.108856,248.935211 280.589508,247.025452 278.622650,246.248413 
	C273.520477,244.232758 268.221405,242.715546 263.218750,240.676910 
	C265.299133,239.902802 267.139709,239.237244 269.028778,239.043060 
	C273.251404,238.608978 277.542358,238.696518 281.725433,238.052002 
	C289.181122,236.903259 296.577576,235.369888 304.391785,234.015015 
	C306.856537,234.355103 308.928284,234.677551 311.000000,235.000000 
z"/>
<path fill="#A18CA8" opacity="1.000000" stroke="none" 
	d="
M311.000000,98.550018 
	C309.468689,98.451248 307.894043,97.998970 306.414734,97.334442 
	C302.911957,95.760925 299.816498,92.651779 295.408508,94.719620 
	C294.957001,94.931427 294.137543,94.476700 293.532715,94.225578 
	C287.290863,91.633827 281.120300,88.853470 274.792358,86.494438 
	C272.237701,85.542076 269.344482,85.497818 265.896912,84.879501 
	C259.352142,79.878426 253.515823,75.038147 248.044083,70.021362 
	C250.305222,69.911102 252.243652,69.747902 254.090851,70.084846 
	C260.743866,71.298409 267.366119,72.680595 274.307983,74.174362 
	C275.294373,74.824112 275.919891,75.412926 276.659515,75.755142 
	C283.213440,78.787582 291.756348,77.814171 296.059082,85.407997 
	C296.183319,85.627228 296.652130,85.664101 296.968201,85.759811 
	C301.644653,87.175812 306.322510,88.587372 311.000000,90.000000 
	C311.000000,92.700012 311.000000,95.400032 311.000000,98.550018 
z"/>
<path fill="#A597B6" opacity="1.000000" stroke="none" 
	d="
M1.000000,79.466118 
	C8.764064,78.806122 16.527594,78.580254 24.292730,78.450493 
	C25.556070,78.429390 26.823467,78.984863 28.094297,79.010498 
	C30.941755,79.067924 33.795166,78.864540 36.641338,78.942619 
	C40.268719,79.042122 43.891350,79.314644 47.714478,80.135071 
	C45.787693,83.884445 43.662460,87.011330 41.102379,90.110786 
	C37.646469,90.731873 34.633675,91.422386 31.602480,92.019501 
	C26.441622,93.036133 21.838953,92.665688 16.484911,90.767776 
	C12.238756,89.262596 6.227510,92.736771 1.000000,94.000000 
	C1.000000,89.310745 1.000000,84.621490 1.000000,79.466118 
z"/>
<path fill="#EAC097" opacity="1.000000" stroke="none" 
	d="
M197.468658,311.000000 
	C200.157898,304.646057 206.738647,305.674988 212.069519,303.987427 
	C214.280304,303.287567 216.439758,302.425537 219.231018,301.314148 
	C229.893188,298.994415 239.946899,296.997803 250.368576,295.014435 
	C252.491440,296.685486 254.246338,298.343353 255.919952,300.331970 
	C252.897949,303.859894 247.729843,305.368042 248.000000,311.000000 
	C231.312439,311.000000 214.624878,311.000000 197.468658,311.000000 
z"/>
<path fill="#ECCC9E" opacity="1.000000" stroke="none" 
	d="
M1.000000,302.491058 
	C8.236718,301.998108 15.509901,301.537354 22.701056,302.108826 
	C31.973867,302.845734 41.165512,304.558594 50.426647,305.517609 
	C52.945915,305.778534 55.579689,304.745514 58.178589,304.478241 
	C60.807449,304.207886 63.458218,304.150604 66.549698,304.000000 
	C70.606842,306.112122 74.213669,308.224243 77.910248,310.668152 
	C52.333317,311.000000 26.666636,311.000000 1.000000,311.000000 
	C1.000000,308.285370 1.000000,305.633728 1.000000,302.491058 
z"/>
<path fill="#B2A4BC" opacity="1.000000" stroke="none" 
	d="
M1.000000,125.467606 
	C4.340506,125.256927 7.706643,125.903496 11.015928,125.685806 
	C17.021482,125.290749 23.004173,124.461372 28.973101,123.643227 
	C31.066195,123.356331 33.090759,122.569489 35.607254,122.440201 
	C36.562809,128.517746 37.057724,134.166046 37.098892,139.842697 
	C31.068253,139.668411 25.462830,139.022873 19.921999,139.379883 
	C13.584702,139.788208 7.304825,141.087708 1.000000,142.000000 
	C1.000000,136.645065 1.000000,131.290146 1.000000,125.467606 
z"/>
<path fill="#DEB6A9" opacity="1.000000" stroke="none" 
	d="
M284.000000,250.999390 
	C284.750061,250.999603 285.500153,250.999802 286.803589,251.289093 
	C288.571289,252.051910 289.785645,252.525650 291.000000,252.999390 
	C297.662689,251.150116 303.969238,252.779510 310.609314,254.983521 
	C311.000000,256.714355 311.000000,258.428711 310.535126,260.571533 
	C305.949127,261.108612 301.585541,260.389648 297.760956,261.510345 
	C291.225281,263.425476 284.773224,264.620056 277.596130,263.999634 
	C275.149841,263.459045 273.085052,262.987427 271.066620,262.365540 
	C265.367584,260.609619 259.687531,258.792023 254.095963,256.647827 
	C255.082901,255.616974 255.897369,254.506302 256.878204,254.332092 
	C260.983459,253.602905 264.811859,253.015762 267.359314,248.799927 
	C268.060303,247.639816 272.705841,247.221924 273.846863,248.283981 
	C276.974396,251.195023 280.377716,251.053467 284.000000,250.999390 
z"/>
<path fill="#A99BB8" opacity="1.000000" stroke="none" 
	d="
M1.000000,94.464645 
	C6.227510,92.736771 12.238756,89.262596 16.484911,90.767776 
	C21.838953,92.665688 26.441622,93.036133 31.602480,92.019501 
	C34.633675,91.422386 37.646469,90.731873 40.979889,90.470688 
	C39.629646,96.260353 37.967052,101.662689 36.304459,107.065033 
	C24.756973,104.552444 13.343970,106.989655 1.446100,108.000000 
	C1.000000,103.643097 1.000000,99.286201 1.000000,94.464645 
z"/>
<path fill="#C9B3C0" opacity="1.000000" stroke="none" 
	d="
M1.000000,197.000000 
	C1.000000,192.643097 1.000000,188.286194 1.424338,183.459961 
	C6.274014,182.395935 10.683616,181.598724 15.128326,181.253372 
	C22.039305,180.716415 28.942699,177.244858 35.971489,181.467712 
	C35.989429,186.955658 35.943291,191.980820 35.483742,197.004425 
	C27.856361,195.028839 20.837090,194.049210 13.343940,196.769180 
	C9.683664,198.097855 5.142467,196.999710 1.000000,197.000000 
z"/>
<path fill="#D5BBBD" opacity="1.000000" stroke="none" 
	d="
M1.000000,221.000000 
	C1.000000,217.307098 1.000000,213.614182 1.468130,209.460632 
	C13.460075,208.287567 24.983891,207.575134 36.630356,207.208527 
	C38.094810,212.040421 39.436619,216.526535 40.338242,221.009888 
	C26.931711,222.803207 13.965674,222.888916 1.000000,221.000000 
z"/>
<path fill="#DABFBA" opacity="1.000000" stroke="none" 
	d="
M1.000000,221.466858 
	C13.965674,222.888916 26.931711,222.803207 40.546730,221.292328 
	C43.252831,224.673141 45.310261,227.768753 47.367691,230.864380 
	C39.114906,232.110901 30.875895,233.462250 22.602194,234.549637 
	C19.519011,234.954819 16.206287,235.366867 13.262382,234.666107 
	C8.881816,233.623367 5.165757,233.999557 1.360666,236.935547 
	C1.000000,231.977905 1.000000,226.955811 1.000000,221.466858 
z"/>
<path fill="#E5B693" opacity="1.000000" stroke="none" 
	d="
M311.000000,295.000000 
	C311.000000,300.279724 311.000000,305.559418 311.000000,311.000000 
	C301.979614,311.000000 292.958466,311.000000 283.529358,310.629272 
	C284.481354,307.098633 283.961487,304.891937 280.624817,303.070068 
	C279.496918,302.454193 279.508911,299.750702 279.269348,297.775635 
	C280.356110,297.073273 281.392578,296.004669 281.956116,296.213318 
	C286.459747,297.880920 288.550140,295.332672 290.328033,291.874146 
	C290.563171,291.416718 291.427246,291.282654 292.357727,291.062073 
	C296.569366,292.314606 300.379486,293.687469 304.294464,294.620087 
	C306.438141,295.130737 308.759033,294.897675 311.000000,295.000000 
z"/>
<path fill="#CCACB2" opacity="1.000000" stroke="none" 
	d="
M311.000000,210.000000 
	C311.000000,213.692902 311.000000,217.385818 310.558319,221.539368 
	C299.299622,218.979309 290.105225,225.732727 279.552246,226.999634 
	C274.336914,227.309647 269.569366,227.619766 264.928497,227.604080 
	C267.090820,223.187576 269.126495,219.096863 271.560181,214.924515 
	C276.366852,214.378098 280.785309,213.990540 285.182068,213.432205 
	C293.794434,212.338470 302.394714,211.149521 311.000000,210.000000 
z"/>
<path fill="#9E88A4" opacity="1.000000" stroke="none" 
	d="
M311.000000,89.533882 
	C306.322510,88.587372 301.644653,87.175812 296.968201,85.759811 
	C296.652130,85.664101 296.183319,85.627228 296.059082,85.407997 
	C291.756348,77.814171 283.213440,78.787582 276.659515,75.755142 
	C275.919891,75.412926 275.294373,74.824112 274.310486,73.791000 
	C274.701385,71.626801 274.964996,69.396568 276.187164,68.549896 
	C278.500427,66.947273 281.363953,66.138939 284.357910,65.057327 
	C289.144623,66.408760 293.572327,67.703468 298.000000,68.998177 
	C302.095581,70.961121 306.191162,72.924072 310.643372,74.943512 
	C311.000000,79.689255 311.000000,84.378510 311.000000,89.533882 
z"/>
<path fill="#B8A8BF" opacity="1.000000" stroke="none" 
	d="
M1.000000,142.466858 
	C7.304825,141.087708 13.584702,139.788208 19.921999,139.379883 
	C25.462830,139.022873 31.068253,139.668411 37.262398,140.156433 
	C38.312511,142.614288 38.745373,144.786758 38.862637,147.119995 
	C35.796394,149.328598 33.127460,152.618805 29.341736,150.022308 
	C25.661364,147.498077 22.699289,148.810699 19.780575,150.850311 
	C14.095625,154.822968 8.029662,157.635193 1.000000,158.000000 
	C1.000000,152.977905 1.000000,147.955811 1.000000,142.466858 
z"/>
<path fill="#C5A9B3" opacity="1.000000" stroke="none" 
	d="
M311.000000,209.550018 
	C302.394714,211.149521 293.794434,212.338470 285.182068,213.432205 
	C280.785309,213.990540 276.366852,214.378098 271.536255,214.537384 
	C271.962921,210.767151 272.811523,207.302414 273.704468,203.768066 
	C273.748840,203.698471 273.734558,203.218018 273.624695,202.860840 
	C273.515594,202.006302 273.516388,201.508942 273.517151,201.011597 
	C285.725616,201.007721 297.934052,201.003845 310.571259,200.999985 
	C311.000000,203.700012 311.000000,206.400024 311.000000,209.550018 
z"/>
<path fill="#CFB7BF" opacity="1.000000" stroke="none" 
	d="
M36.507706,206.862717 
	C24.983891,207.575134 13.460075,208.287567 1.468130,209.000000 
	C1.000000,205.307098 1.000000,201.614182 1.000000,197.460632 
	C5.142467,196.999710 9.683664,198.097855 13.343940,196.769180 
	C20.837090,194.049210 27.856361,195.028839 35.552139,197.450958 
	C36.191868,200.886932 36.349785,203.874832 36.507706,206.862717 
z"/>
<path fill="#C3B0C0" opacity="1.000000" stroke="none" 
	d="
M35.907413,181.004898 
	C28.942699,177.244858 22.039305,180.716415 15.128326,181.253372 
	C10.683616,181.598724 6.274014,182.395935 1.424338,182.995300 
	C1.000000,179.638718 1.000000,176.277420 1.422256,172.457977 
	C5.419212,170.982925 9.006133,170.006287 12.561923,168.927094 
	C13.792387,168.553650 14.972556,167.431839 16.129534,167.495178 
	C22.737062,167.856873 29.330660,168.473022 35.994316,169.459457 
	C36.008900,173.612427 35.958157,177.308655 35.907413,181.004898 
z"/>
<path fill="#BBAABD" opacity="1.000000" stroke="none" 
	d="
M1.000000,158.437500 
	C8.029662,157.635193 14.095625,154.822968 19.780575,150.850311 
	C22.699289,148.810699 25.661364,147.498077 29.341736,150.022308 
	C33.127460,152.618805 35.796394,149.328598 39.083618,147.394135 
	C42.767723,153.622498 45.915257,159.737473 48.983219,166.183289 
	C47.664955,167.342270 46.426262,168.170425 44.941216,168.755463 
	C42.021400,164.347290 39.347939,160.182251 36.409706,155.604736 
	C36.209866,157.096832 36.082245,158.049698 35.532146,159.001709 
	C32.867065,158.576752 30.634497,157.876678 28.379465,157.794739 
	C25.186127,157.678680 21.785919,157.392105 18.813282,158.295013 
	C12.755546,160.135025 6.924464,162.721222 1.000000,165.000000 
	C1.000000,162.958328 1.000000,160.916672 1.000000,158.437500 
z"/>
<path fill="#E0B6A2" opacity="1.000000" stroke="none" 
	d="
M277.998779,264.000000 
	C284.773224,264.620056 291.225281,263.425476 297.760956,261.510345 
	C301.585541,260.389648 305.949127,261.108612 310.535126,261.000000 
	C311.000000,265.024536 311.000000,269.049103 310.560242,273.536804 
	C304.746979,274.666656 299.373474,275.333313 293.645142,275.944397 
	C287.860199,273.259613 282.430084,270.630432 277.143280,267.683960 
	C277.523956,266.244476 277.761383,265.122253 277.998779,264.000000 
z"/>
<path fill="#E3B69C" opacity="1.000000" stroke="none" 
	d="
M294.000000,276.000000 
	C299.373474,275.333313 304.746979,274.666656 310.560242,274.000000 
	C311.000000,280.687653 311.000000,287.375275 311.000000,294.531464 
	C308.759033,294.897675 306.438141,295.130737 304.294464,294.620087 
	C300.379486,293.687469 296.569366,292.314606 292.357422,290.661224 
	C291.666229,288.131378 291.333130,286.065704 291.228088,283.730408 
	C292.304138,280.973877 293.152069,278.486938 294.000000,276.000000 
z"/>
<path fill="#E8BA93" opacity="1.000000" stroke="none" 
	d="
M279.000000,298.001221 
	C279.508911,299.750702 279.496918,302.454193 280.624817,303.070068 
	C283.961487,304.891937 284.481354,307.098633 283.060730,310.629272 
	C271.645782,311.000000 260.291534,311.000000 248.468658,311.000000 
	C247.729843,305.368042 252.897949,303.859894 256.371002,300.331726 
	C264.418060,300.982788 271.784180,300.322449 279.000000,298.001221 
z"/>
<path fill="#BFACC0" opacity="1.000000" stroke="none" 
	d="
M1.000000,165.437500 
	C6.924464,162.721222 12.755546,160.135025 18.813282,158.295013 
	C21.785919,157.392105 25.186127,157.678680 28.379465,157.794739 
	C30.634497,157.876678 32.867065,158.576752 35.599274,159.451874 
	C36.035583,162.936157 35.982285,165.969452 35.928989,169.002731 
	C29.330660,168.473022 22.737062,167.856873 16.129534,167.495178 
	C14.972556,167.431839 13.792387,168.553650 12.561923,168.927094 
	C9.006133,170.006287 5.419212,170.982925 1.422256,171.999908 
	C1.000000,169.958328 1.000000,167.916672 1.000000,165.437500 
z"/>
<path fill="#837394" opacity="1.000000" stroke="none" 
	d="
M311.000000,16.528801 
	C309.393188,16.220331 307.751099,15.504483 306.189880,14.642262 
	C304.756134,13.850452 303.518311,12.550995 302.005890,12.080761 
	C295.050323,9.918182 287.974121,8.134058 281.057739,5.859838 
	C278.262177,4.940618 275.764038,3.116916 273.065277,1.352408 
	C285.561920,1.000000 298.123840,1.000000 311.000000,1.000000 
	C311.000000,6.014830 311.000000,11.036217 311.000000,16.528801 
z"/>
<path fill="#D2AEAF" opacity="1.000000" stroke="none" 
	d="
M280.000000,226.999725 
	C290.105225,225.732727 299.299622,218.979309 310.558319,222.000000 
	C311.000000,226.024551 311.000000,230.049088 311.000000,234.536819 
	C308.928284,234.677551 306.856537,234.355103 304.321838,233.657318 
	C298.483795,229.186935 292.343201,227.591873 285.671204,227.575577 
	C283.780365,227.570969 281.890381,227.201736 280.000000,226.999725 
z"/>
<path fill="#9181A4" opacity="1.000000" stroke="none" 
	d="
M18.999977,18.999710 
	C13.272813,20.999460 7.545650,22.999210 1.409243,24.999481 
	C1.000000,21.638712 1.000000,18.277426 1.000000,14.458069 
	C2.714390,13.999846 4.428780,13.999693 6.883479,14.177319 
	C9.388390,15.161188 11.128498,16.027550 12.924131,16.757280 
	C14.923052,17.569624 16.972515,18.257597 18.999977,18.999710 
z"/>
<path fill="#9080A5" opacity="1.000000" stroke="none" 
	d="
M19.453556,18.999790 
	C16.972515,18.257597 14.923052,17.569624 12.924131,16.757280 
	C11.128498,16.027550 9.388390,15.161188 7.311949,14.177256 
	C9.085815,12.669153 11.088881,10.391560 13.273999,10.200945 
	C18.200121,9.771223 23.222025,10.611183 28.194317,10.491722 
	C33.368988,10.367396 38.525837,9.630490 43.700302,9.331310 
	C48.722790,9.040917 54.035381,7.446960 57.857048,12.817963 
	C58.558125,13.803262 60.876068,13.923071 62.455807,13.949080 
	C69.453545,14.064297 76.454308,14.019681 83.453827,13.992404 
	C87.556519,13.976417 91.751862,14.675882 95.036789,10.907068 
	C95.866760,9.954840 98.141815,10.097234 99.765083,10.029147 
	C108.011459,9.683265 116.366104,8.474232 124.488411,9.356800 
	C139.777435,11.018105 155.371887,9.557263 170.375656,15.196484 
	C176.719345,17.580782 184.454330,16.276508 191.558670,16.611879 
	C192.840652,16.672400 194.131119,16.553177 195.709488,17.170313 
	C196.000870,21.215715 196.000427,24.607742 195.687317,28.147860 
	C190.139786,30.969595 185.793594,27.144497 181.023254,26.387947 
	C179.007538,26.068270 176.907410,26.280973 174.490204,26.149525 
	C168.756546,24.429714 163.378342,22.812067 158.000137,21.194420 
	C154.265610,19.466932 150.647018,16.637381 146.773636,16.229959 
	C137.247772,15.227983 127.534981,14.483120 118.029259,15.256280 
	C109.307922,15.965639 100.046379,13.668530 91.813232,18.700438 
	C90.813271,19.311592 89.203957,18.950825 87.875534,18.995443 
	C78.577034,19.307756 69.273163,19.943771 59.980942,19.806032 
	C52.581123,19.696344 45.204643,18.314360 37.800453,18.101961 
	C31.849497,17.931252 25.872549,18.666576 19.453556,18.999790 
z"/>
<path fill="#9180A3" opacity="1.000000" stroke="none" 
	d="
M196.000000,27.999771 
	C196.000427,24.607742 196.000870,21.215715 196.000946,17.412045 
	C199.708984,17.666895 203.417358,18.333384 207.562561,18.999672 
	C209.652130,19.595324 211.332123,20.743704 212.951553,20.663858 
	C215.718185,20.527451 218.446869,19.621031 221.802673,19.257095 
	C223.609055,20.317476 224.804230,21.158791 225.841446,22.285004 
	C225.455673,24.379831 225.227829,26.189764 224.531342,27.999805 
	C214.708450,27.999866 205.354233,27.999819 196.000000,27.999771 
z"/>
<path fill="#58744A" opacity="1.000000" stroke="none" 
	d="
M157.559723,21.189880 
	C163.378342,22.812067 168.756546,24.429714 174.705017,26.406765 
	C181.815094,30.559208 188.354889,34.352249 195.086639,38.425350 
	C198.447937,40.746220 201.521393,42.959946 204.810883,44.784088 
	C208.928543,47.067474 213.223679,49.030846 217.604919,51.456535 
	C220.829834,54.181717 223.892014,56.582706 226.494690,58.978226 
	C219.011337,59.899845 211.987488,60.826939 204.587524,61.782166 
	C201.884674,61.732586 199.557953,61.654869 196.990631,61.358128 
	C186.197525,54.584293 175.798950,47.761642 165.035278,41.574123 
	C158.472748,37.801624 151.243881,37.855522 144.471237,41.457607 
	C138.483521,44.642208 132.736206,48.278816 126.549545,51.821056 
	C122.448586,55.275940 118.680817,58.625618 114.649780,62.181862 
	C113.539200,63.923706 112.691902,65.458992 111.516838,67.076332 
	C108.804901,72.748421 106.420731,78.338455 104.017082,84.332275 
	C103.372444,88.160507 102.747284,91.584961 102.022217,95.411728 
	C100.864922,104.063400 99.807518,112.312752 98.580246,121.887337 
	C111.711655,113.743210 123.403366,106.491989 135.391663,99.087326 
	C136.505234,98.608154 137.322235,98.282425 138.518921,97.938179 
	C144.931763,101.021629 150.964920,104.123589 156.799194,107.487930 
	C152.941315,109.711411 149.192062,111.522705 145.640518,113.662193 
	C135.694534,119.653740 125.830223,125.780838 115.606522,131.962982 
	C112.112610,134.337952 108.945869,136.604401 105.449081,138.965225 
	C98.239693,143.525955 97.848183,144.637985 99.811165,154.443115 
	C100.285179,158.933441 100.808945,162.975281 101.300194,167.418579 
	C101.874825,171.882797 102.481972,175.945541 103.084961,180.398407 
	C104.173340,183.623764 104.508400,187.305847 106.524185,189.108887 
	C110.147125,192.349503 114.778755,194.462402 119.193115,197.311371 
	C120.772217,198.192200 122.147156,198.808121 123.549706,199.471344 
	C123.577316,199.518646 123.686218,199.530487 123.815079,199.812683 
	C128.315002,202.710190 132.593399,205.498474 137.078278,207.901413 
	C144.296112,211.768646 151.650238,215.381470 159.131851,219.387253 
	C165.466446,222.478668 171.615967,225.284622 177.911728,228.409027 
	C185.028229,231.815918 191.998505,234.904358 198.912750,238.345078 
	C195.793777,243.497101 192.730820,248.296844 189.307632,253.091248 
	C185.587891,251.704910 182.210373,250.365875 178.872574,248.934204 
	C171.596298,245.813293 164.340225,242.645218 156.943146,239.204407 
	C150.577164,235.897766 144.343948,232.883118 138.012802,229.542862 
	C128.835098,223.784042 119.755333,218.350815 110.675575,212.917587 
	C110.199799,213.301437 109.724022,213.685287 109.248245,214.069122 
	C111.885078,221.983932 114.521912,229.898743 116.877350,238.083618 
	C110.732086,238.887039 104.868217,239.420410 98.979324,239.577759 
	C96.436264,231.130081 93.918228,223.058456 91.408997,214.556427 
	C89.319794,207.679565 91.213234,199.430405 82.930580,195.421295 
	C76.841194,190.761261 70.918091,186.381943 64.871460,181.690735 
	C59.519550,176.203369 54.291172,171.027908 49.062794,165.852448 
	C45.915257,159.737473 42.767723,153.622498 39.399208,147.233383 
	C38.745373,144.786758 38.312511,142.614288 37.716148,140.128067 
	C37.057724,134.166046 36.562809,128.517746 36.003777,122.438454 
	C36.047981,121.516373 36.156303,121.025299 36.737202,120.223236 
	C41.241920,122.265678 45.219482,121.683479 49.274239,119.869270 
	C50.558678,119.294579 52.076752,119.242081 53.568810,119.385834 
	C53.798374,121.883514 53.947041,123.945984 54.057919,126.441330 
	C54.387787,135.115204 55.222042,143.218094 60.539577,150.389297 
	C64.702721,147.140396 68.215874,143.831711 72.249580,141.379181 
	C78.870636,137.353500 82.809990,132.237900 81.675781,123.741440 
	C82.206596,116.901901 82.610214,110.452354 83.160797,103.625458 
	C84.894012,94.504860 86.480263,85.761612 88.277237,76.724625 
	C91.343445,69.629349 94.198929,62.827835 97.054413,56.026321 
	C100.360008,51.969078 103.665611,47.911835 107.027084,43.523628 
	C111.974739,40.004383 116.866501,36.816105 121.946518,33.339638 
	C125.554596,31.130196 128.974411,29.208942 132.695221,27.119625 
	C140.684311,23.552982 148.545593,20.878902 157.559723,21.189880 
M81.793373,156.553589 
	C79.077766,158.645279 76.272652,160.636810 73.723495,162.914780 
	C73.225044,163.360199 73.287895,165.395676 73.826920,165.880417 
	C76.801582,168.555588 80.004120,170.977386 84.198555,174.345200 
	C83.479858,167.492401 82.928589,162.235977 81.793373,156.553589 
z"/>
<path fill="#1C3752" opacity="1.000000" stroke="none" 
	d="
M53.487911,118.950623 
	C52.076752,119.242081 50.558678,119.294579 49.274239,119.869270 
	C45.219482,121.683479 41.241920,122.265678 36.866310,119.868919 
	C36.494785,115.875122 36.466721,111.924667 36.371559,107.519623 
	C37.967052,101.662689 39.629646,96.260353 41.414730,90.498108 
	C43.662460,87.011330 45.787693,83.884445 47.972759,80.419540 
	C54.096317,76.026794 60.160038,71.972069 66.480957,67.655228 
	C72.073883,64.260963 77.409615,61.128815 82.979652,57.768387 
	C84.930389,56.559795 86.582253,55.421097 88.396729,54.681255 
	C89.072334,54.405785 90.128288,55.063152 90.942520,55.972168 
	C87.984024,62.773117 85.093819,68.897049 82.085289,75.405823 
	C82.686974,81.452255 78.450516,82.866837 74.502174,84.653641 
	C65.944183,88.526505 57.788383,92.878632 55.023170,103.419662 
	C54.429962,108.868561 53.958939,113.909592 53.487911,118.950623 
z"/>
<path fill="#9B8FAC" opacity="1.000000" stroke="none" 
	d="
M82.203613,75.020981 
	C85.093819,68.897049 87.984024,62.773117 91.023849,56.325966 
	C92.852654,56.005543 94.531860,56.008339 96.632736,56.018730 
	C94.198929,62.827835 91.343445,69.629349 87.929703,76.664581 
	C85.648827,76.272514 83.926224,75.646744 82.203613,75.020981 
z"/>
<path fill="#E7C3A3" opacity="1.000000" stroke="none" 
	d="
M134.449371,295.999878 
	C133.835999,295.999359 133.668945,295.998749 133.346100,295.648010 
	C137.023193,294.244324 140.878662,293.264008 144.675598,292.093811 
	C145.862778,291.727905 146.892105,290.849823 148.461395,290.164612 
	C156.773331,290.020020 164.760574,291.029785 172.054840,286.882294 
	C175.761093,284.774902 179.546280,282.806396 183.811020,280.829712 
	C196.550842,280.256226 208.775421,279.628113 221.265228,279.234314 
	C222.929520,280.395203 224.328598,281.321777 225.727661,282.248383 
	C224.486252,283.291260 223.208481,284.295013 222.022003,285.397034 
	C221.572891,285.814178 221.334457,286.458191 220.548798,286.999176 
	C216.284760,287.643188 212.365005,287.927948 208.686905,289.023682 
	C204.349152,290.315979 200.220505,292.310120 196.001221,294.000000 
	C192.671616,293.590332 189.349121,292.921722 186.010803,292.830231 
	C180.698792,292.684601 175.333313,292.526367 170.068420,293.095123 
	C162.580826,293.904053 155.193924,295.654327 147.704941,296.437897 
	C143.496567,296.878235 139.169357,296.183228 134.449371,295.999878 
z"/>
<path fill="#E9C29D" opacity="1.000000" stroke="none" 
	d="
M195.902618,294.332886 
	C200.220505,292.310120 204.349152,290.315979 208.686905,289.023682 
	C212.365005,287.927948 216.284760,287.643188 220.997116,286.999573 
	C224.509918,287.143677 227.472885,286.542389 229.670105,287.573273 
	C235.947662,290.518585 242.472382,289.939240 249.001205,290.371155 
	C249.335556,292.161957 249.668091,293.581604 250.000610,295.001221 
	C239.946899,296.997803 229.893188,298.994415 219.419739,300.995483 
	C216.518188,298.387573 213.737595,298.256409 210.116379,298.507294 
	C203.996338,298.931335 197.775864,297.905640 191.298492,297.244751 
	C192.600922,296.221954 194.202469,295.443878 195.902618,294.332886 
z"/>
<path fill="#9180A3" opacity="1.000000" stroke="none" 
	d="
M251.793549,26.688211 
	C247.101837,32.658894 247.120621,32.593731 254.955399,34.851494 
	C256.371033,35.259438 257.561523,36.448570 258.528015,37.568901 
	C256.411011,37.573399 254.592270,37.404911 252.840683,36.967541 
	C250.811111,36.460754 248.032639,36.321800 247.009521,34.953629 
	C244.754364,31.937899 242.202209,30.874767 238.602219,30.781822 
	C236.387619,30.724648 234.199829,29.629562 232.249359,28.765057 
	C234.665604,27.353176 236.832504,26.176746 238.999390,25.000317 
	C243.195190,25.458839 247.390991,25.917364 251.793549,26.688211 
z"/>
<path fill="#927F9F" opacity="1.000000" stroke="none" 
	d="
M238.701965,24.758167 
	C236.832504,26.176746 234.665604,27.353176 231.874359,28.764954 
	C230.500000,29.000332 229.750000,29.000364 228.805283,28.786304 
	C228.073715,28.381725 227.536850,28.191235 226.666672,28.000561 
	C225.888901,28.000151 225.444443,27.999922 225.000000,27.999695 
	C225.227829,26.189764 225.455673,24.379831 226.174896,22.284950 
	C227.110855,21.999821 227.555420,21.999643 228.000000,21.999466 
	C231.468185,22.838316 234.936356,23.677168 238.701965,24.758167 
z"/>
<path fill="#8D7EA2" opacity="1.000000" stroke="none" 
	d="
M227.983154,21.622112 
	C227.555420,21.999643 227.110855,21.999821 226.332825,22.000053 
	C224.804230,21.158791 223.609055,20.317476 222.207230,19.238197 
	C224.904770,17.314789 227.155060,17.367376 227.983154,21.622112 
z"/>
<path fill="#E7C6A8" opacity="1.000000" stroke="none" 
	d="
M147.993698,290.206207 
	C146.892105,290.849823 145.862778,291.727905 144.675598,292.093811 
	C140.878662,293.264008 137.023193,294.244324 133.095520,295.647156 
	C131.072083,296.330170 129.121140,297.044128 127.218582,296.932617 
	C118.418571,296.416809 109.632004,295.671600 100.419388,295.003662 
	C98.391335,292.886230 96.784500,290.773712 95.088852,288.330566 
	C94.847794,285.842560 94.695541,283.685089 94.771492,281.263824 
	C100.434784,283.105499 105.306290,280.620331 110.649155,279.060272 
	C113.598816,278.322845 116.198242,277.646912 119.215797,276.708740 
	C120.497993,276.926178 121.385025,277.369110 122.222588,277.891357 
	C130.352875,282.960846 138.319580,288.368408 147.993698,290.206207 
z"/>
<path fill="#1C3852" opacity="1.000000" stroke="none" 
	d="
M148.461395,290.164612 
	C138.319580,288.368408 130.352875,282.960846 122.222588,277.891357 
	C121.385025,277.369110 120.497993,276.926178 119.307449,276.356903 
	C113.796684,272.767883 108.612404,269.268433 102.405243,265.078552 
	C109.537285,263.544250 114.907967,262.388885 121.026810,261.150513 
	C125.535843,259.604797 128.607529,260.680939 131.891464,262.923462 
	C136.346695,265.965820 141.271851,268.320007 146.323120,271.177795 
	C153.943863,274.640015 160.795471,273.935608 167.535309,269.061829 
	C170.894989,267.167175 173.905167,265.306488 177.219818,263.363129 
	C181.572159,259.885803 185.620010,256.491180 189.667862,253.096573 
	C192.730820,248.296844 195.793777,243.497101 199.213867,238.141693 
	C202.244049,229.076508 204.917130,220.566986 207.727325,211.666901 
	C209.506897,203.512360 211.149307,195.748383 212.937500,187.609467 
	C213.497040,184.859665 213.910812,182.484772 214.525986,179.851486 
	C214.830444,178.729187 214.933502,177.865295 215.256653,176.660217 
	C216.399384,167.541122 217.322021,158.763214 218.418564,149.670273 
	C217.871338,147.185150 217.822968,144.072815 216.319061,142.998978 
	C207.068085,136.393494 197.488342,130.248398 187.805542,123.688583 
	C182.324356,120.275131 177.165314,116.917419 171.753937,114.033073 
	C166.981659,111.489357 161.927658,109.474136 156.998062,107.225548 
	C150.964920,104.123589 144.931763,101.021629 138.387726,97.633095 
	C136.957748,96.794548 136.038666,96.242584 134.855072,95.480148 
	C133.131104,94.652435 131.671631,94.035179 129.916946,93.248962 
	C121.093330,90.029495 112.564941,86.978989 104.036560,83.928482 
	C106.420731,78.338455 108.804901,72.748421 111.744263,67.383713 
	C117.363174,69.478355 122.503983,71.164368 127.474663,73.254921 
	C137.995880,77.679901 148.428284,82.316017 159.209686,87.037140 
	C165.991318,90.769241 172.460373,94.329750 179.268173,98.016586 
	C192.366577,105.890778 205.126266,113.638641 217.885941,121.386505 
	C218.416443,121.195564 218.946960,121.004623 219.477478,120.813683 
	C217.515656,108.658295 215.553833,96.502899 213.879730,84.046371 
	C220.074570,81.535904 225.965790,80.635612 231.838348,84.393463 
	C232.714172,90.227600 233.557327,95.627663 234.341156,101.438385 
	C234.608887,106.902969 234.935928,111.956917 235.216095,117.427505 
	C235.457428,121.631187 235.643997,125.429710 236.070984,129.201035 
	C236.338638,131.565170 236.967712,133.888412 237.677490,136.485535 
	C248.658707,144.752457 258.393188,153.751114 265.774567,165.063950 
	C267.728668,170.983307 270.155365,176.797806 271.498779,182.852661 
	C272.743378,188.462189 272.829620,194.328720 273.471558,200.546844 
	C273.516388,201.508942 273.515594,202.006302 273.529327,203.006378 
	C273.543823,203.509094 273.660156,203.837677 273.660156,203.837677 
	C272.811523,207.302414 271.962921,210.767151 271.138214,214.619034 
	C269.126495,219.096863 267.090820,223.187576 264.640137,227.758209 
	C259.826294,232.163010 255.427444,236.087875 250.682617,240.065582 
	C247.243896,241.926514 244.151138,243.734634 240.933609,245.179230 
	C235.833099,240.050873 236.987961,233.884674 237.192612,227.740143 
	C241.651703,224.070786 245.880569,220.649597 250.400757,217.029114 
	C258.763672,204.407501 257.200165,191.610275 252.180466,178.323212 
	C248.964890,173.529007 245.745377,169.089981 242.424088,164.324738 
	C240.168655,161.877792 238.015015,159.757050 235.518814,157.298965 
	C235.135773,158.665894 234.938599,159.119278 234.888351,159.588379 
	C234.482498,163.377548 234.104279,167.169647 233.531815,171.362305 
	C232.144684,179.890030 230.943329,188.016342 229.547913,196.503693 
	C228.496872,201.236221 227.639893,205.607697 226.590683,210.288315 
	C223.947662,219.061432 221.496887,227.525406 218.911926,236.323700 
	C216.163696,242.722305 213.549637,248.786560 210.653320,255.049225 
	C208.117874,258.454437 205.864685,261.661255 203.367310,265.074402 
	C196.514008,270.445557 189.904892,275.610321 183.295776,280.775085 
	C179.546280,282.806396 175.761093,284.774902 172.054840,286.882294 
	C164.760574,291.029785 156.773331,290.020020 148.461395,290.164612 
z"/>
<path fill="#BB9449" opacity="1.000000" stroke="none" 
	d="
M99.004349,239.953796 
	C104.868217,239.420410 110.732086,238.887039 117.243393,238.106995 
	C119.451111,237.344650 121.045937,236.914185 122.565346,236.297806 
	C127.761452,234.189941 132.931046,232.016739 138.110748,229.868469 
	C144.343948,232.883118 150.577164,235.897766 156.621063,239.406158 
	C151.479294,242.508575 146.526840,245.117249 141.203217,247.744125 
	C134.534805,250.432907 128.237579,253.103500 121.940338,255.774078 
	C119.511208,256.228149 117.082085,256.682190 113.969986,257.192383 
	C112.889519,257.264557 112.492012,257.280640 112.094513,257.296692 
	C102.596039,259.133331 93.413361,257.359344 83.949844,254.769287 
	C78.161217,251.372742 72.716408,248.072067 67.209549,244.170609 
	C69.867676,238.946152 72.587852,234.322495 75.643105,229.777985 
	C77.847351,230.917831 79.633049,232.178085 81.601448,233.001617 
	C87.363403,235.412262 93.198135,237.648941 99.004349,239.953796 
z"/>
<path fill="#DFC0B2" opacity="1.000000" stroke="none" 
	d="
M121.946777,256.157074 
	C128.237579,253.103500 134.534805,250.432907 141.513092,247.969025 
	C144.827942,249.791779 147.533081,251.305847 150.060059,253.074493 
	C151.057434,253.772568 152.471848,255.206116 152.304276,256.017151 
	C151.353943,260.616852 154.029083,260.771454 157.398605,261.068542 
	C163.923325,261.643860 170.411835,262.629974 176.915344,263.445831 
	C173.905167,265.306488 170.894989,267.167175 167.143982,268.888123 
	C162.053497,268.729187 157.682617,268.445496 153.362335,268.792267 
	C150.864548,268.992767 148.448349,270.209839 145.995438,270.969391 
	C141.271851,268.320007 136.346695,265.965820 131.891464,262.923462 
	C128.607529,260.680939 125.535843,259.604797 121.389282,261.002472 
	C121.320145,259.471649 121.636681,258.005859 121.946777,256.157074 
z"/>
<path fill="#DFC0B2" opacity="1.000000" stroke="none" 
	d="
M112.247025,257.430237 
	C112.492012,257.280640 112.889519,257.264557 113.577454,257.317017 
	C113.378441,257.444946 112.888992,257.504333 112.247025,257.430237 
z"/>
<path fill="#BA9349" opacity="1.000000" stroke="none" 
	d="
M273.342773,145.555573 
	C273.352905,148.045349 273.264282,150.084351 273.126434,153.016678 
	C272.673431,157.988724 272.269684,162.067413 271.865936,166.146118 
	C271.463074,165.518417 271.060211,164.890717 270.367981,163.720734 
	C266.784760,158.628601 264.009827,153.547073 260.048523,149.681168 
	C256.225983,145.950684 254.170456,142.306412 255.508896,136.712479 
	C255.886780,133.562546 256.085876,130.765732 256.657288,127.995087 
	C262.366791,130.055786 267.703918,132.090286 273.041046,134.124802 
	C273.108704,137.784790 273.176392,141.444794 273.342773,145.555573 
z"/>
<path fill="#948242" opacity="1.000000" stroke="none" 
	d="
M273.084900,133.663666 
	C267.703918,132.090286 262.366791,130.055786 256.580444,127.552643 
	C256.051544,124.392944 255.971848,121.701874 255.970642,118.663445 
	C256.161835,117.855339 256.274536,117.394577 256.820679,116.943077 
	C262.523468,117.670479 267.792786,118.388626 273.062073,119.106781 
	C273.128235,120.800491 273.194397,122.494194 273.361359,124.600754 
	C273.351013,127.743233 273.239899,130.472870 273.084900,133.663666 
z"/>
<path fill="#E9C9AF" opacity="1.000000" stroke="none" 
	d="
M47.446152,275.145233 
	C49.054474,275.384583 50.312752,275.690125 51.571033,275.995697 
	C51.546406,276.674652 51.521774,277.353638 51.497147,278.032623 
	C49.779171,278.032623 48.061192,278.032623 46.343216,278.032623 
	C46.594181,277.092224 46.845146,276.151855 47.446152,275.145233 
z"/>
<path fill="#E7C6A8" opacity="1.000000" stroke="none" 
	d="
M92.775955,287.752441 
	C91.238190,288.037750 89.476898,288.075531 87.358223,288.056641 
	C88.620483,285.246033 90.557381,286.049500 92.775955,287.752441 
z"/>
<path fill="#58734B" opacity="1.000000" stroke="none" 
	d="
M273.118225,118.632660 
	C267.792786,118.388626 262.523468,117.670479 256.731812,116.502777 
	C255.778381,112.039276 255.347305,108.025322 254.936905,103.641678 
	C251.392151,91.857224 242.469482,86.864700 231.805710,83.959404 
	C225.965790,80.635612 220.074570,81.535904 213.513519,83.963638 
	C205.185730,86.704483 197.418854,88.982285 189.876740,91.850990 
	C186.019913,93.317955 182.565659,95.843292 178.929443,97.890266 
	C172.460373,94.329750 165.991318,90.769241 159.411560,86.759460 
	C167.904205,82.270966 176.507538,78.231743 185.491669,74.158356 
	C192.246231,71.731857 198.619995,69.339531 205.404175,66.956429 
	C214.754883,64.964668 223.696960,62.991711 233.216431,65.436256 
	C238.242706,67.159119 242.961121,68.678497 247.679520,70.197876 
	C253.515823,75.038147 259.352142,79.878426 265.450012,84.896957 
	C268.083649,91.140862 270.455658,97.206512 272.942566,103.639442 
	C273.096436,108.723991 273.135406,113.441261 273.118225,118.632660 
z"/>
<path fill="#B8A1B3" opacity="1.000000" stroke="none" 
	d="
M255.330093,137.065582 
	C254.170456,142.306412 256.225983,145.950684 260.048523,149.681168 
	C264.009827,153.547073 266.784760,158.628601 270.175720,163.516418 
	C269.032532,164.240860 267.792236,164.627319 266.163239,165.038864 
	C258.393188,153.751114 248.658707,144.752457 238.052002,136.330353 
	C239.615204,135.840973 241.395142,135.177261 242.417297,135.786011 
	C246.602448,138.278458 250.894028,138.019623 255.330093,137.065582 
z"/>
<path fill="#A4908D" opacity="1.000000" stroke="none" 
	d="
M271.954376,166.421204 
	C272.269684,162.067413 272.673431,157.988724 273.143127,153.454285 
	C273.463623,156.694183 273.718201,160.389816 273.979370,164.541199 
	C273.338257,165.563400 272.690552,166.129852 271.954376,166.421204 
z"/>
<path fill="#9785A5" opacity="1.000000" stroke="none" 
	d="
M217.442200,51.132347 
	C213.223679,49.030846 208.928543,47.067474 204.810883,44.784088 
	C201.521393,42.959946 198.447937,40.746220 195.399292,38.154762 
	C200.532089,37.153202 205.703232,34.665974 210.324158,39.036552 
	C211.034164,39.708096 212.487701,39.841862 213.586975,39.814060 
	C222.059433,39.599800 230.529312,39.284367 239.000000,39.000305 
	C239.200836,39.792797 239.737534,40.678497 239.547684,41.362568 
	C238.367386,45.615692 239.918640,46.469200 243.843277,45.338066 
	C245.337952,44.907280 247.242523,44.985054 248.709229,45.519749 
	C257.975311,48.897743 267.271942,52.229290 276.356110,56.056564 
	C282.998932,58.855282 289.358734,62.337685 295.772125,65.655586 
	C296.683258,66.126953 297.183411,67.392761 297.936890,68.644524 
	C293.572327,67.703468 289.144623,66.408760 284.058716,64.815140 
	C278.634064,64.680916 275.388550,60.129543 271.704559,59.580631 
	C260.772614,57.951782 251.171005,49.848194 239.360672,52.917446 
	C238.778763,53.068676 238.072708,52.672005 237.417465,52.622063 
	C230.759888,52.114567 224.100830,51.626125 217.442200,51.132347 
z"/>
<path fill="#9382A3" opacity="1.000000" stroke="none" 
	d="
M239.273743,38.768967 
	C230.529312,39.284367 222.059433,39.599800 213.586975,39.814060 
	C212.487701,39.841862 211.034164,39.708096 210.324158,39.036552 
	C205.703232,34.665974 200.532089,37.153202 195.207336,37.874702 
	C188.354889,34.352249 181.815094,30.559208 175.060455,26.508928 
	C176.907410,26.280973 179.007538,26.068270 181.023254,26.387947 
	C185.793594,27.144497 190.139786,30.969595 195.687317,28.147860 
	C205.354233,27.999819 214.708450,27.999866 224.531342,27.999805 
	C225.444443,27.999922 225.888901,28.000151 226.714966,28.266884 
	C227.731064,28.689058 228.365540,28.844727 229.000000,29.000397 
	C229.750000,29.000364 230.500000,29.000332 231.625000,29.000404 
	C234.199829,29.629562 236.387619,30.724648 238.602219,30.781822 
	C242.202209,30.874767 244.754364,31.937899 247.009521,34.953629 
	C248.032639,36.321800 250.811111,36.460754 252.840683,36.967541 
	C254.592270,37.404911 256.411011,37.573399 258.599426,37.930077 
	C263.298615,37.273754 265.514435,39.649624 266.939026,43.646355 
	C258.477295,39.021004 248.714920,40.274696 239.273743,38.768967 
z"/>
<path fill="#59754D" opacity="1.000000" stroke="none" 
	d="
M75.308044,229.698822 
	C72.587852,234.322495 69.867676,238.946152 67.009956,243.903641 
	C64.836159,243.125381 62.799892,242.013306 60.421928,240.813751 
	C56.028030,237.544464 51.975834,234.362671 47.645664,231.022629 
	C45.310261,227.768753 43.252831,224.673141 40.986916,221.295074 
	C39.436619,216.526535 38.094810,212.040421 36.630356,207.208527 
	C36.349785,203.874832 36.191868,200.886932 35.965553,197.452515 
	C35.943291,191.980820 35.989429,186.955658 35.971489,181.467712 
	C35.958157,177.308655 36.008900,173.612427 35.994316,169.459457 
	C35.982285,165.969452 36.035583,162.936157 36.021755,159.452728 
	C36.082245,158.049698 36.209866,157.096832 36.409706,155.604736 
	C39.347939,160.182251 42.021400,164.347290 45.076157,169.049530 
	C49.113216,173.734634 52.768982,177.882538 56.201992,182.368103 
	C55.277931,188.470428 54.576626,194.235077 53.838387,200.427719 
	C54.279079,207.980118 55.735634,214.681870 61.973694,219.675140 
	C66.531273,223.204941 70.919662,226.451874 75.308044,229.698822 
z"/>
<path fill="#ECCBA4" opacity="1.000000" stroke="none" 
	d="
M63.842285,292.556580 
	C64.457947,292.607269 64.895515,292.838226 65.333076,293.069183 
	C65.147560,293.270447 64.833786,293.667480 64.796257,293.642853 
	C64.393784,293.379181 64.034973,293.048889 63.842285,292.556580 
z"/>
<path fill="#DBB7AD" opacity="1.000000" stroke="none" 
	d="
M241.058395,245.542740 
	C244.151138,243.734634 247.243896,241.926514 251.057373,240.231491 
	C255.519043,240.562836 259.259979,240.781113 263.000916,240.999390 
	C268.221405,242.715546 273.520477,244.232758 278.622650,246.248413 
	C280.589508,247.025452 282.108856,248.935211 283.916077,250.664124 
	C280.377716,251.053467 276.974396,251.195023 273.846863,248.283981 
	C272.705841,247.221924 268.060303,247.639816 267.359314,248.799927 
	C264.811859,253.015762 260.983459,253.602905 256.878204,254.332092 
	C255.897369,254.506302 255.082901,255.616974 253.740662,256.804871 
	C250.883514,257.218750 248.476242,257.150299 246.072250,257.021118 
	C244.645569,256.944458 243.178894,256.480499 241.807907,256.692719 
	C235.499802,257.669128 229.229858,258.895142 222.916565,259.831787 
	C221.990097,259.969238 220.904266,259.032654 220.156891,258.405212 
	C227.300552,253.992554 234.179474,249.767639 241.058395,245.542740 
z"/>
<path fill="#D3B1B0" opacity="1.000000" stroke="none" 
	d="
M263.218750,240.676910 
	C259.259979,240.781113 255.519043,240.562836 251.403351,240.178665 
	C255.427444,236.087875 259.826294,232.163010 264.513489,228.084015 
	C269.569366,227.619766 274.336914,227.309647 279.552246,226.999634 
	C281.890381,227.201736 283.780365,227.570969 285.671204,227.575577 
	C292.343201,227.591873 298.483795,229.186935 303.928833,233.639664 
	C296.577576,235.369888 289.181122,236.903259 281.725433,238.052002 
	C277.542358,238.696518 273.251404,238.608978 269.028778,239.043060 
	C267.139709,239.237244 265.299133,239.902802 263.218750,240.676910 
z"/>
<path fill="#DBB7AD" opacity="1.000000" stroke="none" 
	d="
M290.979645,252.645081 
	C289.785645,252.525650 288.571289,252.051910 287.178619,251.289093 
	C288.916565,249.600449 290.398193,249.533890 290.979645,252.645081 
z"/>
<path fill="#9C88A7" opacity="1.000000" stroke="none" 
	d="
M217.604919,51.456535 
	C224.100830,51.626125 230.759888,52.114567 237.417465,52.622063 
	C238.072708,52.672005 238.778763,53.068676 239.360672,52.917446 
	C251.171005,49.848194 260.772614,57.951782 271.704559,59.580631 
	C275.388550,60.129543 278.634064,64.680916 283.699646,64.758408 
	C281.363953,66.138939 278.500427,66.947273 276.187164,68.549896 
	C274.964996,69.396568 274.701385,71.626801 274.002502,73.615723 
	C267.366119,72.680595 260.743866,71.298409 254.090851,70.084846 
	C252.243652,69.747902 250.305222,69.911102 248.044083,70.021362 
	C242.961121,68.678497 238.242706,67.159119 233.295441,65.034698 
	C234.360046,59.043427 234.360046,59.043427 226.954193,58.983696 
	C223.892014,56.582706 220.829834,54.181717 217.604919,51.456535 
z"/>
<path fill="#E7BB9A" opacity="1.000000" stroke="none" 
	d="
M250.368576,295.014435 
	C249.668091,293.581604 249.335556,292.161957 249.287216,290.199097 
	C251.655609,285.411530 254.838120,286.754547 258.418091,287.978210 
	C269.556641,286.638428 280.278320,285.319214 291.000000,284.000000 
	C291.333130,286.065704 291.666229,288.131378 291.999695,290.597961 
	C291.427246,291.282654 290.563171,291.416718 290.328033,291.874146 
	C288.550140,295.332672 286.459747,297.880920 281.956116,296.213318 
	C281.392578,296.004669 280.356110,297.073273 279.269379,297.775635 
	C271.784180,300.322449 264.418060,300.982788 256.452271,300.000977 
	C254.246338,298.343353 252.491440,296.685486 250.368576,295.014435 
z"/>
<path fill="#E1BAA9" opacity="1.000000" stroke="none" 
	d="
M219.892166,258.592987 
	C220.904266,259.032654 221.990097,259.969238 222.916565,259.831787 
	C229.229858,258.895142 235.499802,257.669128 241.807907,256.692719 
	C243.178894,256.480499 244.645569,256.944458 246.072250,257.021118 
	C248.476242,257.150299 250.883514,257.218750 253.644699,257.155762 
	C259.687531,258.792023 265.367584,260.609619 271.066620,262.365540 
	C273.085052,262.987427 275.149841,263.459045 277.596130,263.999634 
	C277.761383,265.122253 277.523956,266.244476 276.705048,267.683655 
	C268.415344,268.666626 260.707184,269.332703 252.794754,269.688110 
	C250.912766,269.025574 249.249908,268.548828 247.554321,268.346710 
	C243.552139,267.869659 239.540497,267.441864 235.521729,267.140015 
	C224.888077,266.341339 214.248627,265.620056 203.611481,264.868042 
	C205.864685,261.661255 208.117874,258.454437 210.958450,255.325531 
	C212.917068,255.638840 214.288330,255.874252 215.515076,256.450500 
	C214.596588,257.968170 213.822601,259.145020 213.048615,260.321869 
	C213.274826,260.695160 213.501022,261.068420 213.727234,261.441711 
	C215.782211,260.492157 217.837189,259.542572 219.892166,258.592987 
z"/>
<path fill="#BBA4B3" opacity="1.000000" stroke="none" 
	d="
M273.704498,203.768066 
	C273.660156,203.837677 273.543823,203.509094 273.639191,203.363556 
	C273.734558,203.218018 273.748840,203.698471 273.704498,203.768066 
z"/>
<path fill="#C1ADBB" opacity="1.000000" stroke="none" 
	d="
M56.424747,182.030426 
	C52.768982,177.882538 49.113216,173.734634 45.322510,169.292664 
	C46.426262,168.170425 47.664955,167.342270 48.983223,166.183289 
	C54.291172,171.027908 59.519550,176.203369 64.434395,181.690338 
	C61.555492,182.011368 58.990120,182.020905 56.424747,182.030426 
z"/>
<path fill="#E4BAA1" opacity="1.000000" stroke="none" 
	d="
M252.999008,269.998779 
	C260.707184,269.332703 268.415344,268.666626 276.561768,268.000885 
	C282.430084,270.630432 287.860199,273.259613 293.645142,275.944397 
	C293.152069,278.486938 292.304138,280.973877 291.228088,283.730408 
	C280.278320,285.319214 269.556641,286.638428 258.338623,287.651581 
	C254.894623,283.230774 251.947006,279.115997 249.139801,274.703735 
	C250.519821,272.937103 251.759415,271.467926 252.999008,269.998779 
z"/>
<path fill="#B9A2B8" opacity="1.000000" stroke="none" 
	d="
M188.017990,123.950119 
	C197.488342,130.248398 207.068085,136.393494 216.319061,142.998978 
	C217.822968,144.072815 217.871338,147.185150 218.040924,149.629395 
	C214.347244,149.396622 210.642166,149.750916 208.208649,148.160065 
	C205.309982,146.265167 202.947891,145.938034 199.594604,147.020081 
	C193.209473,148.745956 187.860611,147.018921 182.645752,143.607529 
	C184.899857,143.190186 187.153976,142.772827 189.928284,142.259171 
	C187.277756,138.656219 184.501968,139.122864 181.218964,139.666672 
	C174.895035,140.714188 168.444061,141.806870 162.082870,141.619751 
	C153.392792,141.364105 144.741043,139.893570 136.063065,139.043716 
	C134.782852,138.918350 133.396683,139.167160 132.148148,139.539764 
	C123.274696,142.187943 114.547722,139.836807 105.779129,138.870850 
	C108.945869,136.604401 112.112610,134.337952 115.794624,132.280334 
	C118.935081,135.363907 121.826019,135.241196 125.318176,133.933167 
	C131.134766,131.754456 137.065445,129.760071 143.099777,128.326813 
	C146.872803,127.430649 151.148605,126.759705 154.808685,127.629448 
	C166.442276,130.393921 177.154419,126.938789 188.017990,123.950119 
z"/>
<path fill="#CEB2BB" opacity="1.000000" stroke="none" 
	d="
M118.988945,197.046478 
	C114.778755,194.462402 110.147125,192.349503 106.524185,189.108887 
	C104.508400,187.305847 104.173340,183.623764 103.493736,180.396454 
	C105.271614,180.002655 106.636574,180.000961 108.304619,180.244186 
	C114.813568,182.507462 120.833679,180.949005 127.088005,180.318878 
	C135.638824,179.457367 144.406128,180.695526 153.075607,181.132980 
	C153.985886,181.178909 154.833405,181.985001 155.760681,182.278366 
	C157.749466,182.907562 159.745178,183.566772 161.786667,183.963516 
	C164.041962,184.401840 166.397858,184.361496 168.628586,184.879761 
	C174.254745,186.186874 179.866913,187.578690 185.424042,189.150955 
	C189.898315,190.416885 195.275574,190.358185 196.921722,196.462280 
	C192.888168,199.247299 188.995819,201.725494 184.872803,203.919510 
	C182.807846,201.905258 181.109970,199.988617 179.090286,198.512207 
	C177.793427,197.564224 176.049255,196.850952 174.459610,196.748871 
	C168.884827,196.390930 163.237381,196.771088 157.713913,196.089615 
	C146.058548,194.651596 134.844360,196.578537 123.686218,199.530487 
	C123.686218,199.530487 123.577316,199.518646 123.649834,199.080475 
	C122.984634,195.618607 122.088181,193.065720 118.988945,197.046478 
z"/>
<path fill="#C8ADBB" opacity="1.000000" stroke="none" 
	d="
M108.001526,179.999268 
	C106.636574,180.000961 105.271614,180.002655 103.497894,180.006332 
	C102.481972,175.945541 101.874825,171.882797 101.737228,167.414429 
	C110.481689,166.667953 118.761635,166.411316 127.027451,165.917908 
	C128.759094,165.814545 130.414505,164.749084 132.147079,164.283340 
	C136.245758,163.181519 140.367950,161.356613 144.483917,161.347778 
	C148.987656,161.338104 153.495071,163.041809 158.189972,164.318497 
	C160.262070,165.424942 162.131561,166.817352 164.031189,166.859741 
	C167.059082,166.927322 170.110367,165.717041 173.145630,165.743759 
	C176.725922,165.775253 180.306305,166.959961 183.874710,166.902527 
	C189.111496,166.818253 194.400864,165.559448 198.618973,170.169922 
	C199.256104,170.866318 200.834137,170.631454 201.914902,171.006256 
	C204.626724,171.946686 207.355438,172.871338 209.975250,174.032715 
	C211.751877,174.820297 213.355545,175.998123 215.036560,177.001404 
	C214.933502,177.865295 214.830444,178.729187 214.074249,179.825577 
	C208.245514,179.453796 202.366959,180.203049 198.043671,177.957733 
	C189.577881,173.560928 180.730301,173.606583 171.962418,173.779129 
	C163.054520,173.954422 154.187820,175.872299 145.281662,176.827118 
	C143.748749,176.991470 142.108032,176.161362 140.518494,175.784760 
	C134.030624,174.247650 127.466553,171.400467 121.404411,176.963074 
	C121.066589,177.273071 120.327667,177.653366 120.103409,177.505051 
	C115.206543,174.266281 112.146599,179.776779 108.001526,179.999268 
z"/>
<path fill="#BCA6BA" opacity="1.000000" stroke="none" 
	d="
M105.449081,138.965225 
	C114.547722,139.836807 123.274696,142.187943 132.148148,139.539764 
	C133.396683,139.167160 134.782852,138.918350 136.063065,139.043716 
	C144.741043,139.893570 153.392792,141.364105 162.082870,141.619751 
	C168.444061,141.806870 174.895035,140.714188 181.218964,139.666672 
	C184.501968,139.122864 187.277756,138.656219 189.928284,142.259171 
	C187.153976,142.772827 184.899857,143.190186 182.645752,143.607529 
	C187.860611,147.018921 193.209473,148.745956 199.516846,147.393417 
	C198.358582,148.498138 196.915558,149.773376 195.381149,149.894882 
	C191.467773,150.204788 187.502151,149.806656 183.578079,150.039520 
	C174.378662,150.585419 165.191330,151.334808 155.571777,152.006363 
	C136.716614,152.672150 118.288765,153.333389 99.860909,153.994629 
	C97.848183,144.637985 98.239693,143.525955 105.449081,138.965225 
z"/>
<path fill="#9E8EAD" opacity="1.000000" stroke="none" 
	d="
M204.993744,66.947212 
	C198.619995,69.339531 192.246231,71.731857 185.259567,73.875870 
	C180.537003,70.734711 176.443390,68.818581 171.258423,71.533730 
	C169.563766,72.421158 167.011246,71.929779 164.893280,71.692345 
	C161.146088,71.272270 157.449692,70.277504 153.698990,70.035515 
	C145.966171,69.536598 137.924118,70.567894 132.302170,63.123436 
	C131.489594,62.047428 128.620773,62.407703 126.693283,62.314625 
	C122.770226,62.125175 118.840202,62.079948 114.913048,61.975296 
	C118.680817,58.625618 122.448586,55.275940 126.713295,52.173695 
	C128.806656,53.116093 130.353622,54.204117 132.011246,54.412758 
	C134.422791,54.716286 136.944580,54.110889 139.365540,54.378986 
	C146.061569,55.120487 152.755951,55.954380 159.402359,57.047359 
	C167.949661,58.452938 176.734863,57.975986 184.984192,62.057125 
	C188.200256,63.648193 193.098938,61.838074 197.231216,61.577152 
	C199.557953,61.654869 201.884674,61.732586 204.596161,62.220634 
	C204.985199,64.069717 204.989471,65.508461 204.993744,66.947212 
z"/>
<path fill="#BA944A" opacity="1.000000" stroke="none" 
	d="
M185.103485,204.203674 
	C188.995819,201.725494 192.888168,199.247299 197.284988,196.429123 
	C198.937790,195.509628 200.102982,194.960999 201.231400,194.345001 
	C205.091827,192.237579 208.939316,190.106476 212.791733,187.984406 
	C211.149307,195.748383 209.506897,203.512360 207.401932,211.728882 
	C204.770050,213.382324 202.608047,214.596710 200.430038,215.781631 
	C192.878204,219.890167 185.320786,223.988434 177.765488,228.090576 
	C171.615967,225.284622 165.466446,222.478668 159.351837,219.113144 
	C167.959000,213.770279 176.531235,208.986984 185.103485,204.203674 
z"/>
<path fill="#B29DB7" opacity="1.000000" stroke="none" 
	d="
M187.805542,123.688583 
	C177.154419,126.938789 166.442276,130.393921 154.808685,127.629448 
	C151.148605,126.759705 146.872803,127.430649 143.099777,128.326813 
	C137.065445,129.760071 131.134766,131.754456 125.318176,133.933167 
	C121.826019,135.241196 118.935081,135.363907 116.121796,132.171814 
	C125.830223,125.780838 135.694534,119.653740 145.640518,113.662193 
	C149.192062,111.522705 152.941315,109.711411 156.799194,107.487930 
	C161.927658,109.474136 166.981659,111.489357 171.753937,114.033073 
	C177.165314,116.917419 182.324356,120.275131 187.805542,123.688583 
z"/>
<path fill="#D2B5B8" opacity="1.000000" stroke="none" 
	d="
M184.872787,203.919495 
	C176.531235,208.986984 167.959000,213.770279 159.166779,218.827682 
	C151.650238,215.381470 144.296112,211.768646 137.078278,207.901413 
	C132.593399,205.498474 128.315002,202.710190 123.815079,199.812683 
	C134.844360,196.578537 146.058548,194.651596 157.713913,196.089615 
	C163.237381,196.771088 168.884827,196.390930 174.459610,196.748871 
	C176.049255,196.850952 177.793427,197.564224 179.090286,198.512207 
	C181.109970,199.988617 182.807846,201.905258 184.872787,203.919495 
z"/>
<path fill="#9A8BA9" opacity="1.000000" stroke="none" 
	d="
M196.990631,61.358128 
	C193.098938,61.838074 188.200256,63.648193 184.984192,62.057125 
	C176.734863,57.975986 167.949661,58.452938 159.402359,57.047359 
	C152.755951,55.954380 146.061569,55.120487 139.365540,54.378986 
	C136.944580,54.110889 134.422791,54.716286 132.011246,54.412758 
	C130.353622,54.204117 128.806656,53.116093 127.046494,52.068489 
	C132.736206,48.278816 138.483521,44.642208 144.471237,41.457607 
	C151.243881,37.855522 158.472748,37.801624 165.035278,41.574123 
	C175.798950,47.761642 186.197525,54.584293 196.990631,61.358128 
z"/>
<path fill="#A191AF" opacity="1.000000" stroke="none" 
	d="
M114.649780,62.181862 
	C118.840202,62.079948 122.770226,62.125175 126.693283,62.314625 
	C128.620773,62.407703 131.489594,62.047428 132.302170,63.123436 
	C137.924118,70.567894 145.966171,69.536598 153.698990,70.035515 
	C157.449692,70.277504 161.146088,71.272270 164.893280,71.692345 
	C167.011246,71.929779 169.563766,72.421158 171.258423,71.533730 
	C176.443390,68.818581 180.537003,70.734711 184.878754,73.910042 
	C176.507538,78.231743 167.904205,82.270966 159.098999,86.587860 
	C148.428284,82.316017 137.995880,77.679901 127.474663,73.254921 
	C122.503983,71.164368 117.363174,69.478355 112.072021,67.301666 
	C112.691902,65.458992 113.539200,63.923706 114.649780,62.181862 
z"/>
<path fill="#C2AABC" opacity="1.000000" stroke="none" 
	d="
M99.811165,154.443115 
	C118.288765,153.333389 136.716614,152.672150 155.514709,152.346832 
	C155.403549,153.842407 154.922165,155.002014 154.434296,156.177231 
	C160.492310,158.245468 160.879166,159.155579 158.000885,163.998779 
	C153.495071,163.041809 148.987656,161.338104 144.483917,161.347778 
	C140.367950,161.356613 136.245758,163.181519 132.147079,164.283340 
	C130.414505,164.749084 128.759094,165.814545 127.027451,165.917908 
	C118.761635,166.411316 110.481689,166.667953 101.769730,167.012955 
	C100.808945,162.975281 100.285179,158.933441 99.811165,154.443115 
z"/>
<path fill="#DABDB2" opacity="1.000000" stroke="none" 
	d="
M177.219818,263.363129 
	C170.411835,262.629974 163.923325,261.643860 157.398605,261.068542 
	C154.029083,260.771454 151.353943,260.616852 152.304276,256.017151 
	C152.471848,255.206116 151.057434,253.772568 150.060059,253.074493 
	C147.533081,251.305847 144.827942,249.791779 141.884277,247.950836 
	C146.526840,245.117249 151.479294,242.508575 156.753830,239.698151 
	C164.340225,242.645218 171.596298,245.813293 178.872574,248.934204 
	C182.210373,250.365875 185.587891,251.704910 189.307632,253.091248 
	C185.620010,256.491180 181.572159,259.885803 177.219818,263.363129 
z"/>
<path fill="#D3B8BC" opacity="1.000000" stroke="none" 
	d="
M61.804489,219.392273 
	C55.735634,214.681870 54.279079,207.980118 54.270203,200.423126 
	C58.811268,199.329361 63.148483,199.327652 66.883736,197.827301 
	C70.869469,196.226349 74.355377,195.781250 78.418007,197.122009 
	C79.683586,197.539658 81.521149,196.224121 83.096863,195.702026 
	C91.213234,199.430405 89.319794,207.679565 90.903839,214.559433 
	C84.321579,214.995758 78.193413,214.489288 72.207497,215.192947 
	C68.624786,215.614090 65.264664,217.928726 61.804489,219.392273 
z"/>
<path fill="#AF9FB9" opacity="1.000000" stroke="none" 
	d="
M53.568810,119.385834 
	C53.958939,113.909592 54.429962,108.868561 55.412697,103.493988 
	C58.992996,103.178856 62.063019,103.264000 65.129799,103.198135 
	C68.662155,103.122253 72.197342,102.722145 75.720444,102.827156 
	C78.161087,102.899918 80.583359,103.589081 83.013840,104.002815 
	C82.610214,110.452354 82.206596,116.901901 81.198044,123.711143 
	C71.541962,121.726036 62.848221,124.269089 54.095711,126.008461 
	C53.947041,123.945984 53.798374,121.883514 53.568810,119.385834 
z"/>
<path fill="#DABDB9" opacity="1.000000" stroke="none" 
	d="
M61.973690,219.675140 
	C65.264664,217.928726 68.624786,215.614090 72.207497,215.192947 
	C78.193413,214.489288 84.321579,214.995758 90.895035,214.989822 
	C93.918228,223.058456 96.436264,231.130081 98.979324,239.577759 
	C93.198135,237.648941 87.363403,235.412262 81.601448,233.001617 
	C79.633049,232.178085 77.847351,230.917831 75.643112,229.777969 
	C70.919662,226.451874 66.531273,223.204941 61.973690,219.675140 
z"/>
<path fill="#B5A4BC" opacity="1.000000" stroke="none" 
	d="
M54.057919,126.441330 
	C62.848221,124.269089 71.541962,121.726036 81.070862,124.101143 
	C82.809990,132.237900 78.870636,137.353500 72.249580,141.379181 
	C68.215874,143.831711 64.702721,147.140396 60.539577,150.389297 
	C55.222042,143.218094 54.387787,135.115204 54.057919,126.441330 
z"/>
<path fill="#AA9AB3" opacity="1.000000" stroke="none" 
	d="
M130.212173,93.417915 
	C131.671631,94.035179 133.131104,94.652435 134.826874,95.922989 
	C135.073822,97.464455 135.084442,98.352608 135.095078,99.240768 
	C123.403366,106.491989 111.711655,113.743210 98.580246,121.887337 
	C99.807518,112.312752 100.864922,104.063400 102.400627,95.405930 
	C105.714455,95.327126 108.905281,94.940163 111.311958,96.133987 
	C116.414543,98.665115 125.956429,97.678642 130.212173,93.417915 
z"/>
<path fill="#A799B6" opacity="1.000000" stroke="none" 
	d="
M83.160797,103.625458 
	C80.583359,103.589081 78.161087,102.899918 75.720444,102.827156 
	C72.197342,102.722145 68.662155,103.122253 65.129799,103.198135 
	C62.063019,103.264000 58.992996,103.178856 55.534882,103.086121 
	C57.788383,92.878632 65.944183,88.526505 74.502174,84.653641 
	C78.450516,82.866837 82.686974,81.452255 82.085297,75.405823 
	C83.926224,75.646744 85.648827,76.272514 87.718979,76.958328 
	C86.480263,85.761612 84.894012,94.504860 83.160797,103.625458 
z"/>
<path fill="#CEB3B3" opacity="1.000000" stroke="none" 
	d="
M177.911728,228.409042 
	C185.320786,223.988434 192.878204,219.890167 200.430038,215.781631 
	C202.608047,214.596710 204.770050,213.382324 207.264801,212.119446 
	C204.917130,220.566986 202.244049,229.076508 199.269867,237.789398 
	C191.998505,234.904358 185.028229,231.815918 177.911728,228.409042 
z"/>
<path fill="#CBB3BD" opacity="1.000000" stroke="none" 
	d="
M82.930580,195.421295 
	C81.521149,196.224121 79.683586,197.539658 78.418007,197.122009 
	C74.355377,195.781250 70.869469,196.226349 66.883736,197.827301 
	C63.148483,199.327652 58.811268,199.329361 54.307137,199.995148 
	C54.576626,194.235077 55.277931,188.470428 56.201992,182.368103 
	C58.990120,182.020905 61.555492,182.011368 64.557930,182.002228 
	C70.918091,186.381943 76.841194,190.761261 82.930580,195.421295 
z"/>
<path fill="#D7BAB4" opacity="1.000000" stroke="none" 
	d="
M138.012802,229.542877 
	C132.931046,232.016739 127.761452,234.189941 122.565346,236.297806 
	C121.045937,236.914185 119.451111,237.344650 117.524796,237.836945 
	C114.521912,229.898743 111.885078,221.983932 109.248245,214.069122 
	C109.724022,213.685287 110.199799,213.301437 110.675575,212.917587 
	C119.755333,218.350815 128.835098,223.784042 138.012802,229.542877 
z"/>
<path fill="#A596B3" opacity="1.000000" stroke="none" 
	d="
M129.916946,93.248962 
	C125.956429,97.678642 116.414543,98.665115 111.311958,96.133987 
	C108.905281,94.940163 105.714455,95.327126 102.500526,95.003601 
	C102.747284,91.584961 103.372444,88.160507 104.017075,84.332275 
	C112.564941,86.978989 121.093330,90.029495 129.916946,93.248962 
z"/>
<path fill="#9A8BA9" opacity="1.000000" stroke="none" 
	d="
M205.404175,66.956429 
	C204.989471,65.508461 204.985199,64.069717 204.972290,62.192497 
	C211.987488,60.826939 219.011337,59.899845 226.494690,58.978226 
	C234.360046,59.043427 234.360046,59.043427 232.987564,64.831223 
	C223.696960,62.991711 214.754883,64.964668 205.404175,66.956429 
z"/>
<path fill="#B9A8B7" opacity="1.000000" stroke="none" 
	d="
M82.085342,156.766571 
	C82.928589,162.235977 83.479858,167.492401 84.198555,174.345200 
	C80.004120,170.977386 76.801582,168.555588 73.826920,165.880417 
	C73.287895,165.395676 73.225044,163.360199 73.723495,162.914780 
	C76.272652,160.636810 79.077766,158.645279 82.085342,156.766571 
z"/>
<path fill="#D2B5B8" opacity="1.000000" stroke="none" 
	d="
M119.193115,197.311371 
	C122.088181,193.065720 122.984634,195.618607 123.622223,199.033173 
	C122.147156,198.808121 120.772217,198.192200 119.193115,197.311371 
z"/>
<path fill="#A596B3" opacity="1.000000" stroke="none" 
	d="
M135.391663,99.087326 
	C135.084442,98.352608 135.073822,97.464455 135.091385,96.133453 
	C136.038666,96.242584 136.957748,96.794548 138.008026,97.651604 
	C137.322235,98.282425 136.505234,98.608154 135.391663,99.087326 
z"/>
<path fill="#E4BFA7" opacity="1.000000" stroke="none" 
	d="
M252.794754,269.688141 
	C251.759415,271.467926 250.519821,272.937103 248.677521,274.703308 
	C238.948776,275.649231 229.524521,274.279358 221.000000,279.000000 
	C208.775421,279.628113 196.550842,280.256226 183.811020,280.829712 
	C189.904892,275.610321 196.514008,270.445557 203.367310,265.074402 
	C214.248627,265.620056 224.888077,266.341339 235.521729,267.140015 
	C239.540497,267.441864 243.552139,267.869659 247.554321,268.346710 
	C249.249908,268.548828 250.912766,269.025574 252.794754,269.688141 
z"/>
<path fill="#E7BEA2" opacity="1.000000" stroke="none" 
	d="
M221.265228,279.234314 
	C229.524521,274.279358 238.948776,275.649231 248.537079,275.000793 
	C251.947006,279.115997 254.894623,283.230774 257.921753,287.672150 
	C254.838120,286.754547 251.655609,285.411530 249.285400,289.827942 
	C242.472382,289.939240 235.947662,290.518585 229.670105,287.573273 
	C227.472885,286.542389 224.509918,287.143677 221.448303,286.999207 
	C221.334457,286.458191 221.572891,285.814178 222.022003,285.397034 
	C223.208481,284.295013 224.486252,283.291260 225.727661,282.248383 
	C224.328598,281.321777 222.929520,280.395203 221.265228,279.234314 
z"/>
<path fill="#9180A3" opacity="1.000000" stroke="none" 
	d="
M228.805283,28.786304 
	C228.365540,28.844727 227.731064,28.689058 227.048309,28.267067 
	C227.536850,28.191235 228.073715,28.381725 228.805283,28.786304 
z"/>
<path fill="#C3A8B8" opacity="1.000000" stroke="none" 
	d="
M158.189972,164.318512 
	C160.879166,159.155579 160.492310,158.245468 154.434296,156.177231 
	C154.922165,155.002014 155.403549,153.842407 155.942017,152.342316 
	C165.191330,151.334808 174.378662,150.585419 183.578079,150.039520 
	C187.502151,149.806656 191.467773,150.204788 195.381149,149.894882 
	C196.915558,149.773376 198.358582,148.498138 199.921005,147.375000 
	C202.947891,145.938034 205.309982,146.265167 208.208649,148.160065 
	C210.642166,149.750916 214.347244,149.396622 217.867004,149.944397 
	C217.322021,158.763214 216.399384,167.541122 215.256653,176.660217 
	C213.355545,175.998123 211.751877,174.820297 209.975250,174.032715 
	C207.355438,172.871338 204.626724,171.946686 201.914902,171.006256 
	C200.834137,170.631454 199.256104,170.866318 198.618973,170.169922 
	C194.400864,165.559448 189.111496,166.818253 183.874710,166.902527 
	C180.306305,166.959961 176.725922,165.775253 173.145630,165.743759 
	C170.110367,165.717041 167.059082,166.927322 164.031189,166.859741 
	C162.131561,166.817352 160.262070,165.424942 158.189972,164.318512 
z"/>
<path fill="#CBAEBA" opacity="1.000000" stroke="none" 
	d="
M212.937500,187.609482 
	C208.939316,190.106476 205.091827,192.237579 201.231400,194.345001 
	C200.102982,194.960999 198.937790,195.509628 197.426193,196.122314 
	C195.275574,190.358185 189.898315,190.416885 185.424042,189.150955 
	C179.866913,187.578690 174.254745,186.186874 168.628586,184.879761 
	C166.397858,184.361496 164.041962,184.401840 161.786667,183.963516 
	C159.745178,183.566772 157.749466,182.907562 155.760681,182.278366 
	C154.833405,181.985001 153.985886,181.178909 153.075607,181.132980 
	C144.406128,180.695526 135.638824,179.457367 127.088005,180.318878 
	C120.833679,180.949005 114.813568,182.507462 108.304619,180.244186 
	C112.146599,179.776779 115.206543,174.266281 120.103409,177.505051 
	C120.327667,177.653366 121.066589,177.273071 121.404411,176.963074 
	C127.466553,171.400467 134.030624,174.247650 140.518494,175.784760 
	C142.108032,176.161362 143.748749,176.991470 145.281662,176.827118 
	C154.187820,175.872299 163.054520,173.954422 171.962418,173.779129 
	C180.730301,173.606583 189.577881,173.560928 198.043671,177.957733 
	C202.366959,180.203049 208.245514,179.453796 213.872833,180.083984 
	C213.910812,182.484772 213.497040,184.859665 212.937500,187.609482 
z"/>
<path fill="#AA95B0" opacity="1.000000" stroke="none" 
	d="
M179.268173,98.016586 
	C182.565659,95.843292 186.019913,93.317955 189.876740,91.850990 
	C197.418854,88.982285 205.185730,86.704483 213.225784,84.264778 
	C215.553833,96.502899 217.515656,108.658295 219.477478,120.813683 
	C218.946960,121.004623 218.416443,121.195564 217.885941,121.386505 
	C205.126266,113.638641 192.366577,105.890778 179.268173,98.016586 
z"/>
<path fill="#C5AAB5" opacity="1.000000" stroke="none" 
	d="
M226.782928,209.979156 
	C227.639893,205.607697 228.496872,201.236221 229.845673,196.429520 
	C237.617172,190.222321 244.896835,184.450348 252.176514,178.678406 
	C257.200165,191.610275 258.763672,204.407501 250.267944,216.651001 
	C248.384979,215.979431 246.946274,215.412964 245.463318,215.008835 
	C241.991592,214.062698 238.492661,213.216888 235.016251,212.287369 
	C232.262924,211.551178 229.526733,210.750946 226.782928,209.979156 
z"/>
<path fill="#CBB0B4" opacity="1.000000" stroke="none" 
	d="
M226.590698,210.288315 
	C229.526733,210.750946 232.262924,211.551178 235.016251,212.287369 
	C238.492661,213.216888 241.991592,214.062698 245.463318,215.008835 
	C246.946274,215.412964 248.384979,215.979431 249.976624,216.850266 
	C245.880569,220.649597 241.651703,224.070786 236.854141,227.810455 
	C232.201935,230.753433 228.118439,233.377960 223.618866,236.001282 
	C221.817230,235.996490 220.431656,235.992920 219.046112,235.989349 
	C221.496887,227.525406 223.947662,219.061432 226.590698,210.288315 
z"/>
<path fill="#59734F" opacity="1.000000" stroke="none" 
	d="
M224.034912,236.002502 
	C228.118439,233.377960 232.201935,230.753433 236.623917,228.058609 
	C236.987961,233.884674 235.833099,240.050873 240.933609,245.179230 
	C234.179474,249.767639 227.300552,253.992554 220.156891,258.405212 
	C217.837189,259.542572 215.782211,260.492157 213.727234,261.441711 
	C213.501022,261.068420 213.274826,260.695160 213.048615,260.321869 
	C213.822601,259.145020 214.596588,257.968170 215.714432,256.208801 
	C218.717148,249.084991 221.376038,242.543747 224.034912,236.002502 
z"/>
<path fill="#B5914D" opacity="1.000000" stroke="none" 
	d="
M252.180450,178.323212 
	C244.896835,184.450348 237.617172,190.222321 230.039734,196.068451 
	C230.943329,188.016342 232.144684,179.890030 233.823257,171.290649 
	C237.042282,168.762024 239.784073,166.706482 242.525879,164.650940 
	C245.745377,169.089981 248.964890,173.529007 252.180450,178.323212 
z"/>
<path fill="#B49CB3" opacity="1.000000" stroke="none" 
	d="
M255.508896,136.712479 
	C250.894028,138.019623 246.602448,138.278458 242.417297,135.786011 
	C241.395142,135.177261 239.615204,135.840973 237.809143,136.074814 
	C236.967712,133.888412 236.338638,131.565170 236.070984,129.201035 
	C235.643997,125.429710 235.457428,121.631187 235.655746,117.425400 
	C242.725571,117.674683 249.308853,118.342735 255.892136,119.010796 
	C255.971848,121.701874 256.051544,124.392944 256.208099,127.526459 
	C256.085876,130.765732 255.886780,133.562546 255.508896,136.712479 
z"/>
<path fill="#AF98B1" opacity="1.000000" stroke="none" 
	d="
M255.970642,118.663445 
	C249.308853,118.342735 242.725571,117.674683 235.702637,117.008743 
	C234.935928,111.956917 234.608887,106.902969 234.735626,101.433502 
	C241.764999,102.015778 248.340607,103.013573 254.916214,104.011368 
	C255.347305,108.025322 255.778381,112.039276 256.298340,116.493530 
	C256.274536,117.394577 256.161835,117.855339 255.970642,118.663445 
z"/>
<path fill="#A792AC" opacity="1.000000" stroke="none" 
	d="
M254.936905,103.641678 
	C248.340607,103.013573 241.764999,102.015778 234.794937,101.022858 
	C233.557327,95.627663 232.714172,90.227600 231.838348,84.393463 
	C242.469482,86.864700 251.392151,91.857224 254.936905,103.641678 
z"/>
<path fill="#D2B4AD" opacity="1.000000" stroke="none" 
	d="
M223.618851,236.001282 
	C221.376038,242.543747 218.717148,249.084991 215.858917,255.867966 
	C214.288330,255.874252 212.917068,255.638840 211.240692,255.127121 
	C213.549637,248.786560 216.163696,242.722305 218.911926,236.323700 
	C220.431656,235.992920 221.817230,235.996490 223.618851,236.001282 
z"/>
<path fill="#DCBEAE" opacity="1.000000" stroke="none" 
	d="
M146.323120,271.177795 
	C148.448349,270.209839 150.864548,268.992767 153.362335,268.792267 
	C157.682617,268.445496 162.053497,268.729187 166.794495,268.922119 
	C160.795471,273.935608 153.943863,274.640015 146.323120,271.177795 
z"/>
<path fill="#B79EAC" opacity="1.000000" stroke="none" 
	d="
M242.424072,164.324738 
	C239.784073,166.706482 237.042282,168.762024 234.009048,170.889221 
	C234.104279,167.169647 234.482498,163.377548 234.888351,159.588379 
	C234.938599,159.119278 235.135773,158.665894 235.518814,157.298965 
	C238.015015,159.757050 240.168655,161.877792 242.424072,164.324738 
z"/>
</svg>